<svg xmlns="http://www.w3.org/2000/svg" viewBox="0 0 900 600" shape-rendering="geometricPrecision">
<path fill="#063660" d="M 365.0,154.5 L 364.5,149.0 L 361.5,149.0 L 361.5,143.0 L 364.5,135.0 L 363.5,133.0 L 366.0,129.5 L 369.5,139.0 L 367.5,140.0 L 365.0,154.5 Z M 485.0,166.5 L 483.0,163.5 L 477.5,162.0 L 479.0,160.5 L 486.0,161.5 L 492.5,165.0 L 488.0,164.5 L 485.0,166.5 Z M 516.0,170.5 L 511.5,167.0 L 511.5,163.0 L 517.0,161.5 L 516.0,170.5 Z M 533.0,198.5 L 525.0,197.5 L 519.5,194.0 L 523.0,194.5 L 521.5,192.0 L 525.0,190.5 L 533.0,198.5 Z M 568.0,248.5 L 557.5,242.0 L 553.5,235.0 L 556.0,231.5 L 560.5,235.0 L 568.0,248.5 Z M 537.0,253.5 L 533.5,250.0 L 534.5,246.0 L 533.5,242.0 L 531.5,241.0 L 532.5,238.0 L 530.5,238.0 L 531.0,233.5 L 535.5,240.0 L 537.0,253.5 Z M 539.0,302.5 L 536.5,292.0 L 541.5,276.0 L 541.5,266.0 L 546.5,267.0 L 546.5,251.0 L 544.0,240.5 L 552.0,245.5 L 562.0,246.5 L 560.5,249.0 L 571.0,254.5 L 570.5,256.0 L 573.5,258.0 L 571.0,258.5 L 554.5,250.0 L 563.5,262.0 L 566.5,270.0 L 564.0,271.5 L 561.0,270.5 L 560.0,272.5 L 553.0,272.5 L 550.0,268.5 L 546.5,272.0 L 546.5,277.0 L 543.5,280.0 L 548.5,289.0 L 541.5,285.0 L 539.0,302.5 Z M 344.0,259.5 L 343.0,254.5 L 341.0,259.5 L 338.5,258.0 L 337.5,252.0 L 340.0,243.5 L 341.0,245.5 L 345.5,245.0 L 343.5,251.0 L 344.0,259.5 Z M 484.0,267.5 L 481.5,265.0 L 483.0,257.5 L 485.5,258.0 L 484.0,267.5 Z M 455.0,264.5 L 438.5,264.0 L 456.0,261.5 L 455.0,264.5 Z M 517.0,271.5 L 513.5,265.0 L 515.0,264.5 L 516.0,266.5 L 517.0,261.5 L 517.0,271.5 Z M 505.0,292.5 L 502.5,291.0 L 502.5,286.0 L 507.5,282.0 L 507.0,278.5 L 508.0,280.5 L 510.5,280.0 L 510.5,275.0 L 509.0,276.5 L 508.5,274.0 L 510.0,270.5 L 511.5,273.0 L 512.0,269.5 L 513.0,273.5 L 514.5,271.0 L 514.5,279.0 L 505.0,292.5 Z M 633.0,294.5 L 631.5,280.0 L 641.0,277.5 L 641.0,271.5 L 659.5,275.0 L 654.0,279.5 L 653.0,278.5 L 648.0,281.5 L 646.0,285.5 L 643.0,285.5 L 642.0,288.5 L 633.0,294.5 Z M 277.0,281.5 L 276.5,277.0 L 274.5,276.0 L 280.0,272.5 L 281.5,278.0 L 277.0,281.5 Z M 317.0,286.5 L 313.5,284.0 L 315.0,279.5 L 319.5,284.0 L 317.0,286.5 Z M 403.0,335.5 L 385.0,335.5 L 386.5,334.0 L 384.0,331.5 L 340.0,331.5 L 333.0,328.5 L 326.0,329.5 L 307.0,326.5 L 271.0,326.5 L 269.5,325.0 L 273.0,320.5 L 276.0,323.5 L 277.0,319.5 L 279.5,321.0 L 281.0,325.5 L 287.5,321.0 L 287.0,318.5 L 284.5,320.0 L 286.5,317.0 L 285.5,312.0 L 287.0,310.5 L 289.0,312.5 L 289.5,311.0 L 286.0,307.5 L 284.5,311.0 L 285.5,302.0 L 283.5,298.0 L 287.0,296.5 L 292.0,298.5 L 295.0,296.5 L 293.5,302.0 L 297.0,302.5 L 298.5,297.0 L 295.5,295.0 L 297.0,292.5 L 298.5,293.0 L 297.5,288.0 L 300.0,281.5 L 300.5,286.0 L 303.5,289.0 L 303.5,299.0 L 298.5,302.0 L 300.0,303.5 L 305.0,303.5 L 307.0,306.5 L 310.0,305.5 L 312.5,302.0 L 308.0,302.5 L 306.5,298.0 L 309.0,298.5 L 314.0,290.5 L 321.0,292.5 L 321.0,294.5 L 318.5,294.0 L 320.0,296.5 L 325.5,297.0 L 320.5,300.0 L 324.5,303.0 L 319.5,303.0 L 327.5,308.0 L 327.0,309.5 L 324.5,309.0 L 324.0,318.5 L 329.0,315.5 L 333.0,318.5 L 334.0,315.5 L 339.0,322.5 L 341.0,319.5 L 349.0,319.5 L 350.5,318.0 L 348.5,316.0 L 354.5,311.0 L 353.5,308.0 L 357.0,304.5 L 360.5,308.0 L 357.5,310.0 L 357.5,316.0 L 360.0,321.5 L 363.5,318.0 L 360.5,318.0 L 360.5,313.0 L 362.0,311.5 L 365.0,313.5 L 367.0,312.5 L 371.5,317.0 L 370.5,322.0 L 372.0,326.5 L 374.0,323.5 L 375.0,325.5 L 379.0,323.5 L 391.0,330.5 L 394.0,334.5 L 403.0,335.5 Z M 532.0,292.5 L 529.5,292.0 L 531.0,290.5 L 529.0,291.5 L 527.5,290.0 L 527.0,285.5 L 529.5,285.0 L 532.5,290.0 L 532.0,292.5 Z M 517.0,308.5 L 515.5,305.0 L 521.5,300.0 L 524.5,292.0 L 527.0,290.5 L 529.5,293.0 L 526.5,296.0 L 528.5,297.0 L 528.5,300.0 L 524.0,301.5 L 522.5,303.0 L 523.5,305.0 L 518.0,306.5 L 517.0,308.5 Z M 489.0,305.5 L 492.0,295.5 L 495.0,296.5 L 498.0,293.5 L 501.5,295.0 L 494.0,301.5 L 491.0,301.5 L 489.0,305.5 Z M 604.0,306.5 L 598.0,306.5 L 592.5,302.0 L 593.0,300.5 L 586.0,298.5 L 586.5,296.0 L 589.0,293.5 L 596.0,295.5 L 607.0,294.5 L 609.5,304.0 L 607.0,305.5 L 605.0,304.5 L 604.0,306.5 Z M 304.5,310.0 L 305.0,307.5 L 301.0,305.5 L 300.0,307.5 L 297.0,303.5 L 291.5,305.0 L 297.0,309.5 L 301.0,308.5 L 300.0,310.5 L 304.5,310.0 Z M 344.0,319.5 L 343.0,316.5 L 342.0,317.5 L 341.0,315.5 L 339.0,316.5 L 337.5,315.0 L 341.5,314.0 L 341.0,310.5 L 345.5,312.0 L 343.0,314.5 L 347.5,313.0 L 344.5,315.0 L 346.5,317.0 L 344.0,319.5 Z M 474.0,334.5 L 465.5,334.0 L 472.5,333.0 L 469.5,332.0 L 470.5,331.0 L 468.5,328.0 L 476.0,321.5 L 482.0,321.5 L 485.0,319.5 L 484.0,323.5 L 490.0,318.5 L 496.0,319.5 L 496.0,317.5 L 499.0,317.5 L 498.5,320.0 L 501.0,320.5 L 500.5,319.0 L 503.0,317.5 L 506.5,318.0 L 506.5,324.0 L 501.0,328.5 L 496.0,329.5 L 495.0,331.5 L 490.0,330.5 L 487.0,332.5 L 474.0,334.5 Z M 654.0,334.5 L 592.5,334.0 L 630.0,328.5 L 649.0,323.5 L 658.5,325.0 L 652.0,325.5 L 651.0,327.5 L 663.0,327.5 L 680.0,323.5 L 683.0,323.5 L 680.5,325.0 L 684.5,327.0 L 654.0,334.5 Z M 303.0,335.5 L 237.5,335.0 L 292.0,334.5 L 285.5,333.0 L 289.5,332.0 L 286.0,330.5 L 291.0,330.5 L 299.0,332.5 L 303.0,335.5 Z M 236.0,335.5 L 213.5,335.0 L 236.0,335.5 Z M 402.0,353.5 L 397.0,352.5 L 394.0,348.5 L 381.0,348.5 L 380.0,350.5 L 377.0,348.5 L 341.0,349.5 L 338.0,352.5 L 337.0,350.5 L 332.5,350.0 L 335.0,348.5 L 312.5,349.0 L 324.0,348.5 L 317.5,347.0 L 320.5,346.0 L 319.5,344.0 L 321.0,342.5 L 324.0,342.5 L 326.0,345.5 L 331.0,347.5 L 335.0,347.5 L 336.0,344.5 L 343.0,341.5 L 363.0,340.5 L 224.5,340.0 L 407.0,340.5 L 409.0,337.5 L 412.0,338.5 L 413.0,336.5 L 416.0,336.5 L 419.5,339.0 L 419.0,340.5 L 427.5,341.0 L 421.0,341.5 L 419.5,343.0 L 420.5,345.0 L 417.5,347.0 L 420.0,348.5 L 411.0,348.5 L 403.0,351.5 L 402.0,353.5 Z M 247.0,394.5 L 246.5,391.0 L 244.5,390.0 L 244.5,362.0 L 241.5,364.0 L 241.0,347.5 L 243.5,349.0 L 242.5,353.0 L 244.5,353.0 L 245.5,367.0 L 252.0,370.5 L 253.5,368.0 L 251.5,382.0 L 247.0,394.5 Z M 285.0,349.5 L 257.5,349.0 L 285.0,349.5 Z M 277.0,374.5 L 270.5,373.0 L 273.0,365.5 L 280.5,366.0 L 277.0,374.5 Z M 223.0,435.5 L 220.5,424.0 L 209.0,415.5 L 187.0,417.5 L 184.0,419.5 L 164.5,420.0 L 170.5,413.0 L 170.5,410.0 L 173.5,408.0 L 172.5,407.0 L 183.5,392.0 L 182.5,391.0 L 185.5,389.0 L 184.5,388.0 L 187.5,386.0 L 186.5,385.0 L 189.5,383.0 L 188.5,382.0 L 194.5,375.0 L 193.5,374.0 L 195.5,371.0 L 199.5,369.0 L 197.5,369.0 L 199.0,366.5 L 204.5,374.0 L 185.5,403.0 L 185.5,406.0 L 189.0,410.5 L 209.0,408.5 L 211.5,402.0 L 218.0,399.5 L 226.0,399.5 L 231.0,407.5 L 265.0,406.5 L 266.0,409.5 L 267.5,407.0 L 267.5,410.0 L 265.0,411.5 L 262.0,410.5 L 239.0,414.5 L 232.5,423.0 L 232.0,426.5 L 227.0,419.5 L 223.5,423.0 L 223.0,435.5 Z M 317.0,380.5 L 316.5,373.0 L 318.5,368.0 L 321.0,366.5 L 347.5,367.0 L 348.5,370.0 L 346.0,373.5 L 325.0,376.5 L 317.0,380.5 Z M 225.0,382.5 L 222.5,381.0 L 225.0,374.5 L 226.5,378.0 L 225.0,382.5 Z M 390.0,428.5 L 370.5,427.0 L 374.0,425.5 L 341.0,426.5 L 341.5,423.0 L 344.5,420.0 L 343.5,419.0 L 348.5,418.0 L 337.5,417.0 L 357.0,416.5 L 361.0,415.5 L 361.0,412.5 L 412.0,412.5 L 423.5,424.0 L 390.0,428.5 Z M 468.0,417.5 L 459.0,416.5 L 458.5,414.0 L 460.0,412.5 L 483.5,413.0 L 468.0,417.5 Z M 436.0,422.5 L 431.5,420.0 L 433.5,418.0 L 432.0,415.5 L 437.0,415.5 L 440.5,420.0 L 437.0,420.5 L 436.0,422.5 Z M 630.0,435.5 L 629.0,429.5 L 627.5,433.0 L 626.5,421.0 L 623.0,417.5 L 621.0,417.5 L 619.0,420.5 L 614.0,415.5 L 639.5,417.0 L 631.5,422.0 L 630.0,435.5 Z M 333.0,434.5 L 319.0,433.5 L 317.0,431.5 L 314.0,432.5 L 301.0,426.5 L 293.5,420.0 L 304.0,417.5 L 337.0,417.5 L 335.0,422.5 L 334.0,420.5 L 332.5,421.0 L 332.5,423.0 L 336.5,425.0 L 334.0,426.5 L 317.5,427.0 L 325.0,430.5 L 334.0,431.5 L 327.5,432.0 L 333.0,434.5 Z M 650.0,427.5 L 647.5,426.0 L 644.5,419.0 L 646.0,417.5 L 653.0,417.5 L 654.5,419.0 L 649.5,424.0 L 650.0,427.5 Z M 421.0,452.5 L 405.5,451.0 L 408.5,449.0 L 408.0,447.5 L 410.0,448.5 L 440.0,442.5 L 442.0,443.5 L 450.0,440.5 L 454.0,441.5 L 456.0,439.5 L 460.0,440.5 L 461.0,438.5 L 471.0,438.5 L 472.0,436.5 L 475.0,437.5 L 478.0,435.5 L 482.0,436.5 L 480.5,438.0 L 484.0,439.5 L 485.0,437.5 L 502.0,433.5 L 527.0,429.5 L 566.0,427.5 L 566.0,429.5 L 575.5,430.0 L 562.0,430.5 L 561.0,428.5 L 558.0,428.5 L 561.5,431.0 L 523.0,435.5 L 483.0,442.5 L 465.0,447.5 L 461.0,446.5 L 459.0,448.5 L 449.0,449.5 L 447.5,447.0 L 450.5,446.0 L 448.0,445.5 L 429.0,449.5 L 427.0,448.5 L 422.0,451.5 L 414.5,451.0 L 421.0,452.5 Z M 469.0,466.5 L 466.0,464.5 L 451.0,466.5 L 449.0,462.5 L 445.0,465.5 L 441.0,463.5 L 437.0,464.5 L 438.0,462.5 L 433.0,463.5 L 434.0,461.5 L 428.0,459.5 L 425.0,459.5 L 425.0,461.5 L 420.0,461.5 L 414.0,460.5 L 416.5,459.0 L 412.0,459.5 L 409.5,457.0 L 422.0,457.5 L 423.0,455.5 L 437.0,455.5 L 439.0,453.5 L 448.0,453.5 L 449.0,451.5 L 452.0,452.5 L 454.0,450.5 L 472.5,449.0 L 459.0,453.5 L 457.0,452.5 L 455.0,454.5 L 453.0,453.5 L 452.5,457.0 L 450.5,458.0 L 452.0,458.5 L 455.0,457.5 L 455.0,455.5 L 459.0,456.5 L 460.0,454.5 L 497.0,447.5 L 511.5,447.0 L 500.0,451.5 L 499.0,450.5 L 495.0,453.5 L 492.0,452.5 L 492.0,454.5 L 469.0,466.5 Z M 402.0,451.5 L 391.0,451.5 L 389.5,450.0 L 400.0,448.5 L 402.5,450.0 L 402.0,451.5 Z"/>
<path fill="#071b32" d="M 522.0,169.5 L 518.5,165.0 L 520.5,164.0 L 519.5,162.0 L 521.5,161.0 L 520.5,157.0 L 522.5,154.0 L 521.0,151.5 L 519.5,153.0 L 519.5,142.0 L 516.5,132.0 L 518.5,131.0 L 514.5,126.0 L 514.5,111.0 L 512.5,108.0 L 514.0,102.5 L 515.5,104.0 L 513.5,106.0 L 514.5,109.0 L 517.5,110.0 L 515.5,112.0 L 517.5,112.0 L 522.5,129.0 L 523.5,134.0 L 521.5,136.0 L 523.5,137.0 L 523.5,142.0 L 525.5,144.0 L 524.5,150.0 L 526.5,153.0 L 526.5,158.0 L 524.5,161.0 L 525.5,163.0 L 523.5,164.0 L 524.5,167.0 L 522.0,169.5 Z M 444.0,196.5 L 442.5,195.0 L 442.5,182.0 L 439.5,177.0 L 440.5,175.0 L 437.5,174.0 L 439.5,173.0 L 438.5,169.0 L 440.5,168.0 L 438.5,160.0 L 442.5,159.0 L 440.5,148.0 L 443.5,143.0 L 443.5,139.0 L 442.0,139.5 L 441.5,137.0 L 444.5,134.0 L 444.0,127.5 L 445.5,133.0 L 448.0,134.5 L 451.0,130.5 L 456.0,129.5 L 452.0,135.5 L 455.0,135.5 L 461.0,131.5 L 463.0,136.5 L 467.0,134.5 L 470.5,137.0 L 469.0,140.5 L 466.0,139.5 L 462.0,143.5 L 457.0,141.5 L 446.5,150.0 L 445.5,155.0 L 448.5,159.0 L 446.5,168.0 L 451.0,166.5 L 451.5,168.0 L 445.5,180.0 L 444.0,196.5 Z M 494.0,150.5 L 492.5,145.0 L 494.5,144.0 L 494.5,138.0 L 498.5,134.0 L 498.5,130.0 L 502.0,128.5 L 497.5,139.0 L 501.0,140.5 L 502.0,138.5 L 503.5,140.0 L 501.5,142.0 L 502.5,144.0 L 500.0,147.5 L 495.0,147.5 L 494.0,150.5 Z M 419.0,153.5 L 411.5,153.0 L 415.5,152.0 L 413.0,148.5 L 411.5,151.0 L 412.0,143.5 L 415.5,145.0 L 415.0,146.5 L 412.5,145.0 L 416.5,147.0 L 419.0,153.5 Z M 397.0,163.5 L 393.5,161.0 L 394.0,149.5 L 395.5,158.0 L 403.0,155.5 L 400.5,159.0 L 405.5,161.0 L 399.0,161.5 L 397.0,163.5 Z M 499.0,166.5 L 496.0,165.5 L 496.0,163.5 L 494.0,165.5 L 492.5,164.0 L 494.5,163.0 L 492.5,160.0 L 493.0,151.5 L 493.5,157.0 L 495.0,156.5 L 498.5,160.0 L 499.0,166.5 Z M 526.0,186.5 L 523.5,186.0 L 523.0,181.5 L 522.0,182.5 L 521.0,180.5 L 520.0,181.5 L 519.0,179.5 L 518.0,180.5 L 512.5,177.0 L 519.0,174.5 L 520.0,172.5 L 522.0,175.5 L 534.5,183.0 L 526.0,186.5 Z M 541.0,197.5 L 533.5,195.0 L 537.0,191.5 L 541.5,196.0 L 541.0,197.5 Z M 533.0,213.5 L 521.0,200.5 L 519.5,201.0 L 519.0,198.5 L 526.0,197.5 L 528.0,199.5 L 531.0,198.5 L 531.0,200.5 L 534.0,199.5 L 534.0,201.5 L 536.5,200.0 L 534.5,204.0 L 536.5,205.0 L 533.5,207.0 L 533.0,213.5 Z M 481.0,204.5 L 480.0,200.5 L 488.5,199.0 L 481.0,204.5 Z M 424.0,215.5 L 423.0,213.5 L 416.5,213.0 L 421.0,207.5 L 424.5,213.0 L 424.0,215.5 Z M 463.0,217.5 L 461.5,214.0 L 466.0,207.5 L 469.5,212.0 L 463.0,217.5 Z M 544.0,230.5 L 540.5,229.0 L 541.5,227.0 L 538.5,225.0 L 535.5,220.0 L 536.5,219.0 L 534.5,218.0 L 535.5,217.0 L 532.5,215.0 L 534.0,213.5 L 536.0,215.5 L 540.0,214.5 L 546.5,221.0 L 545.5,223.0 L 547.0,222.5 L 546.5,225.0 L 548.0,224.5 L 549.5,227.0 L 544.0,230.5 Z M 589.0,252.5 L 582.0,249.5 L 581.0,246.5 L 579.0,247.5 L 577.0,243.5 L 576.0,245.5 L 572.0,239.5 L 571.0,240.5 L 558.5,230.0 L 563.0,232.5 L 563.0,230.5 L 567.0,230.5 L 568.0,232.5 L 569.0,230.5 L 579.0,239.5 L 580.0,237.5 L 580.5,240.0 L 586.5,245.0 L 585.5,246.0 L 589.5,247.0 L 588.5,248.0 L 590.5,251.0 L 589.0,252.5 Z M 449.0,300.5 L 430.5,299.0 L 422.5,288.0 L 423.5,287.0 L 421.5,284.0 L 414.5,278.0 L 414.5,275.0 L 410.5,271.0 L 409.5,266.0 L 406.5,263.0 L 407.5,262.0 L 400.5,252.0 L 399.5,249.0 L 401.0,246.5 L 409.5,255.0 L 408.5,256.0 L 414.5,265.0 L 415.5,271.0 L 418.5,273.0 L 417.5,274.0 L 428.5,283.0 L 426.5,284.0 L 428.5,289.0 L 437.0,295.5 L 445.0,295.5 L 444.5,299.0 L 449.0,300.5 Z M 444.0,278.5 L 439.0,275.5 L 437.0,276.5 L 432.5,272.0 L 439.0,271.5 L 439.0,268.5 L 438.0,269.5 L 436.0,267.5 L 434.0,270.5 L 430.5,270.0 L 428.5,263.0 L 430.0,260.5 L 432.0,265.5 L 456.0,264.5 L 457.5,263.0 L 457.0,266.5 L 453.0,265.5 L 452.5,268.0 L 448.5,270.0 L 453.5,273.0 L 444.0,278.5 Z M 471.0,279.5 L 467.5,275.0 L 473.5,265.0 L 478.0,264.5 L 479.5,266.0 L 477.5,270.0 L 475.5,270.0 L 476.5,271.0 L 471.0,279.5 Z M 600.0,294.5 L 588.0,291.5 L 581.0,287.5 L 580.0,284.5 L 587.0,285.5 L 586.5,283.0 L 582.0,281.5 L 567.5,268.0 L 582.0,272.5 L 578.5,274.0 L 584.0,277.5 L 586.5,276.0 L 583.0,273.5 L 600.0,278.5 L 615.0,278.5 L 609.0,279.5 L 605.5,284.0 L 610.5,286.0 L 609.5,291.0 L 611.5,292.0 L 606.0,293.5 L 605.5,291.0 L 603.0,290.5 L 600.0,294.5 Z M 493.0,289.5 L 492.5,284.0 L 490.5,282.0 L 494.0,277.5 L 495.5,283.0 L 493.5,283.0 L 493.0,289.5 Z M 455.0,298.5 L 450.5,295.0 L 453.0,292.5 L 454.0,293.5 L 459.0,286.5 L 460.0,288.5 L 463.0,287.5 L 460.5,294.0 L 455.0,298.5 Z M 563.0,301.5 L 556.0,298.5 L 546.0,298.5 L 545.0,300.5 L 542.0,298.5 L 540.5,295.0 L 541.5,287.0 L 555.0,293.5 L 563.0,301.5 Z M 416.0,335.5 L 406.0,335.5 L 383.5,320.0 L 384.5,319.0 L 380.5,315.0 L 385.0,311.5 L 387.5,313.0 L 386.0,304.5 L 392.5,313.0 L 391.5,314.0 L 394.5,316.0 L 393.5,317.0 L 395.5,320.0 L 398.0,322.5 L 400.5,321.0 L 397.5,315.0 L 399.0,312.5 L 416.0,335.5 Z M 455.0,334.5 L 443.0,334.5 L 442.5,333.0 L 448.0,327.5 L 451.0,333.5 L 455.0,331.5 L 455.0,334.5 Z M 643.0,340.5 L 547.5,340.0 L 643.0,340.5 Z M 707.0,421.5 L 685.5,419.0 L 692.0,417.5 L 673.0,419.5 L 672.0,417.5 L 655.0,417.5 L 650.0,415.5 L 641.0,417.5 L 640.0,414.5 L 603.0,415.5 L 602.0,413.5 L 579.0,414.5 L 578.0,412.5 L 575.0,414.5 L 575.0,412.5 L 547.0,413.5 L 545.0,411.5 L 509.0,410.5 L 506.0,412.5 L 498.0,412.5 L 491.5,411.0 L 497.0,407.5 L 504.0,407.5 L 509.5,403.0 L 503.5,393.0 L 504.0,384.5 L 506.5,387.0 L 507.5,395.0 L 513.5,397.0 L 511.5,398.0 L 513.0,400.5 L 518.0,402.5 L 520.0,399.5 L 541.0,398.5 L 544.0,400.5 L 547.5,396.0 L 545.5,395.0 L 550.5,388.0 L 549.5,385.0 L 551.5,383.0 L 549.5,381.0 L 552.0,369.5 L 553.5,371.0 L 552.5,376.0 L 554.5,376.0 L 552.5,379.0 L 553.5,397.0 L 556.0,399.5 L 573.5,400.0 L 558.0,400.5 L 558.0,403.5 L 589.0,404.5 L 591.5,403.0 L 591.0,391.5 L 592.0,394.5 L 595.5,393.0 L 594.5,397.0 L 596.5,396.0 L 597.5,402.0 L 601.0,404.5 L 619.0,404.5 L 623.5,397.0 L 623.0,392.5 L 621.5,395.0 L 621.5,386.0 L 623.5,385.0 L 622.5,383.0 L 625.5,377.0 L 624.5,374.0 L 626.5,371.0 L 625.5,366.0 L 627.5,365.0 L 628.5,360.0 L 627.5,357.0 L 630.0,355.5 L 629.5,366.0 L 631.5,367.0 L 630.5,377.0 L 633.5,401.0 L 631.5,405.0 L 633.0,406.5 L 672.0,407.5 L 675.0,404.5 L 679.0,409.5 L 680.0,407.5 L 691.0,410.5 L 707.0,410.5 L 714.5,404.0 L 714.5,397.0 L 716.5,396.0 L 714.5,383.0 L 707.0,373.5 L 700.0,369.5 L 691.0,369.5 L 681.5,367.0 L 683.0,363.5 L 700.0,363.5 L 702.5,360.0 L 701.5,358.0 L 703.5,357.0 L 702.5,354.0 L 704.5,353.0 L 702.0,348.5 L 678.0,348.5 L 675.0,350.5 L 674.0,348.5 L 673.0,351.5 L 672.0,349.5 L 665.5,358.0 L 665.5,368.0 L 662.0,370.5 L 660.0,368.5 L 646.0,368.5 L 645.5,366.0 L 647.0,362.5 L 662.0,363.5 L 666.5,351.0 L 663.0,348.5 L 642.5,347.0 L 650.0,346.5 L 654.0,341.5 L 713.0,340.5 L 714.5,342.0 L 714.5,349.0 L 712.5,350.0 L 712.5,360.0 L 710.5,361.0 L 710.5,365.0 L 708.5,367.0 L 717.5,374.0 L 716.5,375.0 L 719.5,377.0 L 719.5,380.0 L 723.5,385.0 L 722.5,388.0 L 723.5,392.0 L 725.5,393.0 L 725.5,402.0 L 720.5,412.0 L 721.5,413.0 L 713.0,418.5 L 708.0,419.5 L 707.0,421.5 Z M 589.0,385.5 L 571.0,385.5 L 570.5,381.0 L 568.5,380.0 L 569.5,368.0 L 571.0,366.5 L 573.0,378.5 L 580.0,376.5 L 583.5,373.0 L 577.5,355.0 L 579.0,352.5 L 581.5,353.0 L 581.5,356.0 L 583.5,357.0 L 583.5,362.0 L 581.5,363.0 L 585.5,366.0 L 585.5,375.0 L 589.0,385.5 Z M 535.0,372.5 L 531.0,366.5 L 525.0,366.5 L 523.0,369.5 L 521.5,365.0 L 523.5,362.0 L 525.0,363.5 L 532.0,362.5 L 535.5,369.0 L 535.0,372.5 Z M 432.0,366.5 L 418.0,366.5 L 418.0,364.5 L 425.5,364.0 L 417.5,363.0 L 429.0,362.5 L 428.5,364.0 L 432.0,366.5 Z M 364.0,402.5 L 348.0,402.5 L 346.5,398.0 L 361.0,398.5 L 362.5,397.0 L 362.5,377.0 L 365.0,372.5 L 366.5,390.0 L 364.0,402.5 Z M 465.0,402.5 L 448.0,402.5 L 445.5,399.0 L 465.0,398.5 L 468.5,388.0 L 467.5,384.0 L 471.0,378.5 L 473.5,384.0 L 472.5,387.0 L 474.5,395.0 L 473.0,396.5 L 471.0,395.5 L 469.5,400.0 L 465.0,402.5 Z M 689.0,389.5 L 680.0,388.5 L 680.5,386.0 L 677.5,383.0 L 691.0,383.5 L 689.0,389.5 Z M 393.0,402.5 L 380.0,402.5 L 378.5,400.0 L 380.0,398.5 L 392.0,398.5 L 394.5,396.0 L 394.5,386.0 L 392.5,385.0 L 394.0,383.5 L 398.5,387.0 L 395.5,390.0 L 396.5,400.0 L 393.0,402.5 Z M 496.0,404.5 L 493.0,402.5 L 477.0,402.5 L 474.5,399.0 L 476.0,397.5 L 496.0,398.5 L 498.0,401.5 L 498.5,387.0 L 501.0,384.5 L 500.5,400.0 L 499.5,403.0 L 496.0,404.5 Z M 423.0,403.5 L 413.0,403.5 L 404.0,400.5 L 397.5,390.0 L 399.0,389.5 L 404.0,396.5 L 408.0,396.5 L 409.0,398.5 L 430.0,398.5 L 434.5,396.0 L 436.0,389.5 L 436.5,401.0 L 423.0,403.5 Z M 323.0,403.5 L 306.0,403.5 L 303.5,402.0 L 307.0,399.5 L 309.0,399.5 L 309.0,401.5 L 315.0,401.5 L 314.5,400.0 L 318.0,398.5 L 321.0,398.5 L 321.0,400.5 L 325.0,400.5 L 327.0,398.5 L 330.0,399.5 L 332.0,396.5 L 333.5,397.0 L 331.5,395.0 L 333.0,393.5 L 335.5,395.0 L 334.0,401.5 L 323.0,403.5 Z M 332.0,413.5 L 326.5,412.0 L 356.5,412.0 L 332.0,413.5 Z"/>
<path fill="#bfdce8" d="M 449.0,128.5 L 447.0,125.5 L 445.5,126.0 L 445.5,124.0 L 451.5,121.0 L 453.5,114.0 L 452.5,112.0 L 455.0,109.5 L 459.5,118.0 L 456.0,120.5 L 453.0,119.5 L 453.5,123.0 L 448.5,125.0 L 451.5,127.0 L 449.0,128.5 Z M 401.0,139.5 L 397.5,136.0 L 399.5,135.0 L 398.0,130.5 L 402.5,137.0 L 401.0,139.5 Z M 418.0,186.5 L 408.0,184.5 L 405.5,182.0 L 407.0,180.5 L 413.0,181.5 L 414.0,179.5 L 415.5,183.0 L 413.5,184.0 L 418.0,186.5 Z M 456.0,188.5 L 454.5,187.0 L 459.0,179.5 L 457.5,184.0 L 462.5,183.0 L 456.0,188.5 Z M 489.0,194.5 L 471.5,191.0 L 478.0,185.5 L 489.0,185.5 L 489.5,187.0 L 484.5,190.0 L 486.0,191.5 L 495.5,191.0 L 492.0,191.5 L 489.0,194.5 Z M 411.0,199.5 L 400.0,198.5 L 394.5,195.0 L 404.0,197.5 L 410.0,195.5 L 415.5,198.0 L 412.0,197.5 L 411.0,199.5 Z M 513.0,212.5 L 509.0,212.5 L 497.5,205.0 L 510.0,204.5 L 519.5,210.0 L 518.0,211.5 L 510.5,211.0 L 513.0,212.5 Z M 461.0,266.5 L 458.5,258.0 L 461.5,254.0 L 459.0,248.5 L 456.0,257.5 L 451.0,255.5 L 442.0,256.5 L 439.5,254.0 L 440.5,253.0 L 436.5,251.0 L 437.5,243.0 L 439.5,241.0 L 437.5,240.0 L 438.5,229.0 L 436.5,220.0 L 438.5,221.0 L 439.0,225.5 L 441.5,223.0 L 444.0,236.5 L 445.5,219.0 L 450.0,206.5 L 453.5,214.0 L 460.5,218.0 L 460.0,227.5 L 462.5,221.0 L 469.0,218.5 L 477.0,218.5 L 482.0,215.5 L 483.0,217.5 L 488.0,215.5 L 499.0,218.5 L 502.0,223.5 L 493.5,223.0 L 503.5,229.0 L 502.5,235.0 L 485.0,236.5 L 484.0,238.5 L 491.5,240.0 L 478.0,245.5 L 468.5,258.0 L 467.5,263.0 L 461.0,266.5 Z M 439.0,220.5 L 434.5,217.0 L 436.5,215.0 L 435.5,211.0 L 437.0,209.5 L 440.5,216.0 L 439.0,220.5 Z M 501.0,215.5 L 497.0,212.5 L 489.0,213.5 L 488.5,212.0 L 497.0,210.5 L 502.5,214.0 L 501.0,215.5 Z M 526.0,216.5 L 515.5,213.0 L 521.0,210.5 L 526.0,216.5 Z M 423.0,219.5 L 421.0,217.5 L 419.0,219.5 L 409.5,217.0 L 414.0,215.5 L 418.0,217.5 L 414.5,215.0 L 417.0,214.5 L 422.0,216.5 L 423.0,219.5 Z M 524.0,230.5 L 510.0,221.5 L 506.5,216.0 L 511.0,215.5 L 513.5,218.0 L 513.0,221.5 L 515.0,218.5 L 524.0,230.5 Z M 374.0,225.5 L 373.5,222.0 L 382.0,216.5 L 381.5,219.0 L 383.5,220.0 L 374.0,225.5 Z M 392.0,240.5 L 391.5,239.0 L 395.5,237.0 L 391.0,236.5 L 399.0,235.5 L 402.5,237.0 L 402.0,238.5 L 392.0,240.5 Z M 349.0,261.5 L 347.5,256.0 L 349.5,251.0 L 348.5,248.0 L 351.0,244.5 L 350.5,254.0 L 353.5,255.0 L 349.0,261.5 Z M 678.0,264.5 L 676.5,257.0 L 678.5,256.0 L 674.5,251.0 L 674.0,245.5 L 679.5,250.0 L 682.5,257.0 L 683.5,262.0 L 681.0,263.5 L 679.0,262.5 L 678.0,264.5 Z M 393.0,275.5 L 389.0,272.5 L 387.5,274.0 L 386.5,270.0 L 387.5,266.0 L 389.5,265.0 L 387.5,263.0 L 390.5,262.0 L 385.5,261.0 L 388.5,256.0 L 393.0,253.5 L 393.0,275.5 Z M 675.0,274.5 L 674.0,260.5 L 675.5,261.0 L 674.5,267.0 L 677.5,268.0 L 675.0,274.5 Z M 387.0,281.5 L 383.5,279.0 L 383.0,263.5 L 387.0,281.5 Z M 720.0,307.5 L 718.5,307.0 L 718.5,302.0 L 715.5,301.0 L 718.5,299.0 L 718.5,296.0 L 715.5,295.0 L 715.5,289.0 L 713.5,288.0 L 715.5,286.0 L 712.5,284.0 L 713.5,282.0 L 709.5,274.0 L 707.5,274.0 L 705.5,267.0 L 707.0,264.5 L 715.5,274.0 L 714.5,275.0 L 718.5,279.0 L 722.5,288.0 L 724.5,300.0 L 722.5,302.0 L 722.5,306.0 L 720.0,307.5 Z M 320.0,280.5 L 317.5,278.0 L 318.5,275.0 L 316.5,274.0 L 325.0,268.5 L 329.0,271.5 L 332.0,266.5 L 332.5,274.0 L 328.0,274.5 L 320.0,280.5 Z M 405.0,310.5 L 402.0,310.5 L 400.0,307.5 L 399.0,308.5 L 395.5,302.0 L 396.0,300.5 L 399.5,302.0 L 396.5,289.0 L 399.0,271.5 L 406.5,283.0 L 410.5,295.0 L 411.5,305.0 L 408.0,305.5 L 405.0,310.5 Z M 227.0,310.5 L 222.0,310.5 L 221.0,308.5 L 218.0,309.5 L 218.5,306.0 L 217.0,304.5 L 215.0,305.5 L 214.5,303.0 L 218.5,301.0 L 220.5,295.0 L 226.5,290.0 L 224.0,290.5 L 225.0,288.5 L 248.0,278.5 L 248.5,281.0 L 240.5,290.0 L 240.5,293.0 L 237.0,286.5 L 234.5,290.0 L 235.5,293.0 L 232.0,293.5 L 230.5,296.0 L 232.5,298.0 L 230.5,299.0 L 231.5,302.0 L 226.5,301.0 L 229.5,309.0 L 227.0,310.5 Z M 393.0,295.5 L 388.5,288.0 L 390.0,279.5 L 395.5,291.0 L 393.5,292.0 L 393.0,295.5 Z M 369.0,291.5 L 367.5,288.0 L 370.5,285.0 L 368.5,284.0 L 369.0,280.5 L 373.5,288.0 L 373.0,289.5 L 371.0,286.5 L 369.0,291.5 Z M 421.0,295.5 L 416.0,295.5 L 412.5,293.0 L 415.0,286.5 L 419.5,292.0 L 418.5,293.0 L 421.5,294.0 L 421.0,295.5 Z M 252.0,295.5 L 248.5,291.0 L 256.0,287.5 L 252.0,295.5 Z M 245.0,299.5 L 240.0,299.5 L 239.5,298.0 L 241.5,298.0 L 240.5,297.0 L 244.0,292.5 L 248.0,292.5 L 245.5,294.0 L 248.5,295.0 L 245.0,299.5 Z M 434.0,338.5 L 420.5,338.0 L 420.5,335.0 L 424.5,334.0 L 424.5,329.0 L 422.5,328.0 L 424.5,323.0 L 419.0,317.5 L 418.0,321.5 L 415.5,317.0 L 417.5,311.0 L 416.5,301.0 L 420.0,298.5 L 426.5,308.0 L 429.5,318.0 L 431.5,319.0 L 430.5,336.0 L 434.0,338.5 Z M 202.0,359.5 L 199.5,359.0 L 199.5,348.0 L 197.5,347.0 L 198.5,345.0 L 196.5,338.0 L 202.0,335.5 L 205.0,336.5 L 206.0,333.5 L 207.0,335.5 L 211.0,336.5 L 385.0,336.5 L 393.5,338.0 L 201.0,338.5 L 202.0,359.5 Z M 509.0,338.5 L 453.0,338.5 L 449.5,337.0 L 478.5,337.0 L 468.5,336.0 L 475.0,334.5 L 489.0,335.5 L 489.0,337.5 L 509.0,338.5 Z M 717.0,372.5 L 711.5,367.0 L 717.0,338.5 L 575.5,338.0 L 581.0,336.5 L 679.0,337.5 L 717.0,335.5 L 720.5,338.0 L 718.5,352.0 L 715.5,354.0 L 717.5,356.0 L 715.5,360.0 L 715.5,366.0 L 718.5,369.0 L 718.0,370.5 L 715.5,369.0 L 717.0,372.5 Z M 284.0,353.5 L 259.5,353.0 L 284.0,353.5 Z M 374.0,353.5 L 343.5,353.0 L 374.0,353.5 Z M 661.0,353.5 L 633.5,353.0 L 661.0,353.5 Z M 188.0,381.5 L 184.5,380.0 L 196.0,363.5 L 197.5,367.0 L 192.5,371.0 L 192.5,375.0 L 189.5,376.0 L 190.5,378.0 L 188.5,378.0 L 189.5,380.0 L 188.0,381.5 Z M 724.0,416.5 L 721.5,414.0 L 726.5,402.0 L 724.0,377.5 L 729.5,390.0 L 728.5,409.0 L 724.0,416.5 Z M 165.0,426.5 L 161.0,424.5 L 159.0,426.5 L 156.5,425.0 L 169.0,405.5 L 164.5,415.0 L 164.5,419.0 L 161.5,420.0 L 163.0,422.5 L 171.5,423.0 L 162.5,424.0 L 176.5,425.0 L 165.0,426.5 Z M 580.0,447.5 L 575.5,447.0 L 584.0,445.5 L 588.0,442.5 L 591.0,443.5 L 608.5,439.0 L 602.0,442.5 L 580.0,447.5 Z M 384.0,468.5 L 377.0,465.5 L 376.0,466.5 L 375.0,464.5 L 373.0,465.5 L 370.0,463.5 L 363.0,463.5 L 362.0,461.5 L 354.0,461.5 L 350.0,458.5 L 349.0,460.5 L 335.0,456.5 L 324.0,456.5 L 323.0,454.5 L 317.0,455.5 L 315.5,454.0 L 317.0,452.5 L 313.0,454.5 L 303.0,451.5 L 301.0,452.5 L 292.0,449.5 L 291.5,446.0 L 320.0,452.5 L 368.0,458.5 L 377.0,464.5 L 378.0,463.5 L 385.0,466.5 L 384.0,468.5 Z M 552.0,454.5 L 544.5,453.0 L 554.0,450.5 L 553.0,447.5 L 565.5,446.0 L 562.5,447.0 L 563.5,449.0 L 561.5,450.0 L 562.0,451.5 L 552.0,454.5 Z M 566.0,451.5 L 563.5,450.0 L 565.0,448.5 L 567.0,449.5 L 565.5,448.0 L 568.0,446.5 L 569.0,448.5 L 575.5,448.0 L 566.0,451.5 Z M 511.0,466.5 L 507.5,465.0 L 510.0,465.5 L 513.0,462.5 L 526.5,459.0 L 524.0,462.5 L 522.0,460.5 L 522.0,462.5 L 511.0,466.5 Z"/>
<path fill="#042444" d="M 369.0,138.5 L 367.5,132.0 L 366.0,129.5 L 365.0,132.5 L 364.5,129.0 L 371.5,104.0 L 373.5,99.0 L 376.0,98.5 L 393.5,111.0 L 392.5,118.0 L 395.5,121.0 L 394.0,121.5 L 377.0,107.5 L 369.0,138.5 Z M 436.0,145.5 L 432.0,142.5 L 426.0,143.5 L 419.0,139.5 L 418.0,141.5 L 415.5,137.0 L 395.5,118.0 L 395.5,116.0 L 398.0,114.5 L 415.0,131.5 L 423.0,136.5 L 426.5,135.0 L 424.5,134.0 L 424.0,128.5 L 431.0,132.5 L 433.0,136.5 L 434.0,134.5 L 434.5,137.0 L 438.5,139.0 L 438.5,143.0 L 434.5,143.0 L 436.0,145.5 Z M 478.0,128.5 L 476.5,125.0 L 480.0,121.5 L 482.5,124.0 L 478.0,128.5 Z M 390.0,176.5 L 381.0,176.5 L 376.5,174.0 L 380.0,173.5 L 381.0,170.5 L 384.0,174.5 L 390.0,176.5 Z M 553.0,234.5 L 544.0,216.5 L 552.5,218.0 L 551.5,221.0 L 553.5,224.0 L 550.5,225.0 L 556.5,231.0 L 553.0,234.5 Z M 572.0,252.5 L 564.0,251.5 L 560.5,249.0 L 562.0,246.5 L 555.5,246.0 L 563.0,245.5 L 572.0,252.5 Z M 528.0,267.5 L 522.5,261.0 L 524.5,255.0 L 524.0,246.5 L 527.5,255.0 L 528.0,267.5 Z M 346.0,293.5 L 338.5,278.0 L 338.5,268.0 L 336.5,265.0 L 338.0,253.5 L 338.5,258.0 L 341.0,259.5 L 343.5,255.0 L 343.5,273.0 L 345.5,276.0 L 344.5,277.0 L 346.0,276.5 L 346.5,280.0 L 349.5,282.0 L 347.5,283.0 L 348.5,287.0 L 346.0,293.5 Z M 354.0,266.5 L 350.0,266.5 L 349.5,265.0 L 355.0,256.5 L 355.5,264.0 L 354.0,266.5 Z M 640.0,276.5 L 621.0,271.5 L 625.5,269.0 L 620.5,265.0 L 623.0,263.5 L 628.0,267.5 L 630.0,266.5 L 631.0,268.5 L 633.0,267.5 L 634.0,269.5 L 642.0,270.5 L 640.0,276.5 Z M 475.0,278.5 L 472.5,278.0 L 475.5,276.0 L 474.5,275.0 L 479.5,267.0 L 483.0,265.5 L 484.5,269.0 L 483.5,275.0 L 480.0,273.5 L 475.0,278.5 Z M 632.0,293.5 L 617.0,293.5 L 611.5,291.0 L 618.0,279.5 L 636.0,278.5 L 631.5,280.0 L 632.0,293.5 Z M 361.0,298.5 L 357.5,297.0 L 358.5,296.0 L 354.5,291.0 L 355.5,289.0 L 351.5,281.0 L 354.0,279.5 L 361.0,280.5 L 364.5,290.0 L 366.5,291.0 L 363.5,292.0 L 364.5,296.0 L 362.0,294.5 L 361.0,298.5 Z M 554.0,293.5 L 547.5,290.0 L 547.0,283.5 L 555.5,292.0 L 554.0,293.5 Z M 452.0,303.5 L 448.5,302.0 L 458.0,297.5 L 467.0,285.5 L 466.5,287.0 L 468.5,288.0 L 465.5,291.0 L 463.5,298.0 L 457.0,299.5 L 452.0,303.5 Z M 501.0,294.5 L 497.5,292.0 L 499.5,292.0 L 498.5,291.0 L 502.0,286.5 L 502.5,291.0 L 504.5,292.0 L 501.0,294.5 Z M 472.0,315.5 L 473.5,306.0 L 472.0,302.5 L 463.0,313.5 L 460.5,312.0 L 465.5,300.0 L 467.5,300.0 L 464.5,298.0 L 467.0,296.5 L 469.0,297.5 L 469.5,293.0 L 471.0,292.5 L 476.0,299.5 L 484.0,291.5 L 486.5,294.0 L 481.5,303.0 L 476.5,307.0 L 477.5,310.0 L 472.0,315.5 Z M 586.0,296.5 L 579.5,293.0 L 583.0,291.5 L 588.0,293.5 L 588.5,295.0 L 586.0,296.5 Z M 574.0,315.5 L 571.0,315.5 L 568.5,311.0 L 572.5,308.0 L 571.5,306.0 L 573.5,305.0 L 573.5,299.0 L 575.0,302.5 L 576.5,298.0 L 580.0,295.5 L 596.5,305.0 L 594.0,309.5 L 590.0,308.5 L 584.0,312.5 L 576.0,313.5 L 574.0,315.5 Z M 327.0,317.5 L 324.5,316.0 L 324.5,309.0 L 328.0,310.5 L 326.5,307.0 L 328.0,305.5 L 330.0,308.5 L 331.5,308.0 L 330.5,302.0 L 334.0,298.5 L 331.5,303.0 L 334.5,303.0 L 331.5,305.0 L 336.5,312.0 L 330.0,310.5 L 327.5,313.0 L 330.5,315.0 L 327.0,317.5 Z M 500.0,330.5 L 495.5,330.0 L 501.0,328.5 L 506.0,324.5 L 516.5,309.0 L 520.0,310.5 L 519.5,307.0 L 523.0,307.5 L 521.5,306.0 L 523.5,305.0 L 522.5,303.0 L 529.0,298.5 L 534.5,310.0 L 535.0,319.5 L 538.5,314.0 L 538.5,308.0 L 540.5,308.0 L 541.0,300.5 L 545.5,303.0 L 544.0,305.5 L 547.0,306.5 L 550.0,303.5 L 551.0,307.5 L 556.5,309.0 L 555.5,310.0 L 558.5,316.0 L 557.0,319.5 L 554.0,318.5 L 550.0,321.5 L 539.0,321.5 L 539.0,323.5 L 535.0,324.5 L 527.0,324.5 L 524.0,326.5 L 521.0,325.5 L 519.0,327.5 L 517.0,326.5 L 500.0,330.5 Z M 653.0,335.5 L 589.5,335.0 L 653.0,335.5 Z M 407.0,340.5 L 376.5,340.0 L 407.0,340.5 Z M 485.0,375.5 L 482.5,371.0 L 479.5,356.0 L 480.5,354.0 L 478.0,349.5 L 464.0,349.5 L 461.5,352.0 L 458.5,371.0 L 457.0,370.5 L 455.0,374.5 L 450.0,349.5 L 432.0,350.5 L 410.5,349.0 L 420.0,348.5 L 417.5,347.0 L 420.5,345.0 L 419.5,343.0 L 427.5,341.0 L 419.0,339.5 L 547.0,339.5 L 577.5,341.0 L 563.0,342.5 L 547.0,341.5 L 543.0,342.5 L 540.0,346.5 L 539.0,345.5 L 538.0,349.5 L 537.0,347.5 L 536.0,348.5 L 533.0,346.5 L 529.0,349.5 L 522.0,348.5 L 517.0,350.5 L 516.0,348.5 L 509.0,355.5 L 506.5,355.0 L 505.0,349.5 L 492.0,349.5 L 489.5,353.0 L 487.5,362.0 L 488.5,366.0 L 485.0,375.5 Z M 547.0,355.5 L 539.5,350.0 L 543.0,349.5 L 543.0,346.5 L 547.5,348.0 L 546.0,350.5 L 544.5,350.0 L 549.5,354.0 L 547.0,355.5 Z M 552.0,361.5 L 548.5,359.0 L 550.0,356.5 L 551.5,357.0 L 551.0,349.5 L 553.5,352.0 L 552.0,361.5 Z M 366.0,409.5 L 359.0,407.5 L 357.0,408.5 L 355.5,404.0 L 365.5,403.0 L 366.5,367.0 L 375.5,365.0 L 374.5,363.0 L 377.5,359.0 L 376.5,357.0 L 379.0,350.5 L 379.5,362.0 L 377.5,366.0 L 378.5,377.0 L 375.5,382.0 L 376.5,393.0 L 374.5,396.0 L 380.5,403.0 L 377.5,404.0 L 379.0,405.5 L 382.0,405.5 L 383.0,402.5 L 384.0,405.5 L 386.0,403.5 L 389.5,404.0 L 387.0,406.5 L 377.0,406.5 L 376.0,408.5 L 373.0,407.5 L 366.0,409.5 Z M 573.0,370.5 L 571.0,350.5 L 576.5,353.0 L 575.5,356.0 L 578.5,359.0 L 577.5,363.0 L 573.5,366.0 L 574.5,369.0 L 573.0,370.5 Z M 395.0,366.5 L 394.5,353.0 L 396.0,351.5 L 402.0,353.5 L 405.0,351.5 L 400.5,357.0 L 397.5,365.0 L 395.0,366.5 Z M 275.0,414.5 L 249.0,414.5 L 248.5,413.0 L 267.5,410.0 L 267.0,406.5 L 266.0,409.5 L 265.0,406.5 L 257.5,406.0 L 265.5,405.0 L 268.5,396.0 L 265.5,395.0 L 265.5,388.0 L 268.0,385.5 L 270.5,387.0 L 276.5,400.0 L 277.5,404.0 L 272.5,404.0 L 275.0,407.5 L 277.0,407.5 L 278.0,404.5 L 299.0,403.5 L 291.5,394.0 L 291.5,390.0 L 290.0,390.5 L 288.5,388.0 L 291.5,384.0 L 289.5,382.0 L 290.5,380.0 L 294.0,375.5 L 295.5,376.0 L 295.0,372.5 L 297.5,377.0 L 296.5,391.0 L 300.5,400.0 L 304.0,403.5 L 323.0,404.5 L 334.0,402.5 L 335.5,401.0 L 336.5,387.0 L 332.0,384.5 L 322.0,386.5 L 315.0,385.5 L 312.5,382.0 L 312.5,375.0 L 313.5,369.0 L 317.0,363.5 L 332.0,363.5 L 338.5,353.0 L 335.5,361.0 L 337.5,363.0 L 336.5,365.0 L 338.5,366.0 L 319.0,367.5 L 316.5,373.0 L 316.5,380.0 L 325.0,376.5 L 346.0,373.5 L 348.0,370.5 L 347.5,384.0 L 345.5,387.0 L 346.5,392.0 L 343.5,397.0 L 348.0,403.5 L 351.5,404.0 L 352.0,406.5 L 335.0,409.5 L 333.0,407.5 L 331.0,409.5 L 312.0,409.5 L 307.0,410.5 L 306.0,412.5 L 275.0,414.5 Z M 271.0,374.5 L 267.5,374.0 L 270.5,363.0 L 281.0,363.5 L 281.0,367.5 L 280.0,365.5 L 272.5,366.0 L 271.0,374.5 Z M 221.0,382.5 L 217.5,381.0 L 219.5,377.0 L 221.5,377.0 L 220.5,375.0 L 226.0,366.5 L 226.5,377.0 L 225.0,374.5 L 221.0,382.5 Z M 433.0,383.5 L 430.0,383.5 L 429.0,381.5 L 421.0,381.5 L 420.0,379.5 L 415.5,380.0 L 415.5,371.0 L 419.0,366.5 L 435.0,366.5 L 436.5,368.0 L 436.5,377.0 L 430.5,381.0 L 433.0,383.5 Z M 248.0,399.5 L 245.5,396.0 L 245.5,391.0 L 247.0,394.5 L 249.0,389.5 L 248.0,399.5 Z M 399.0,401.5 L 396.5,399.0 L 397.0,392.5 L 399.5,398.0 L 402.5,400.0 L 399.0,401.5 Z M 428.0,423.5 L 427.5,419.0 L 424.0,414.5 L 422.0,416.5 L 414.5,412.0 L 417.0,412.5 L 416.5,410.0 L 419.0,410.5 L 420.0,407.5 L 414.0,408.5 L 411.0,407.5 L 410.0,404.5 L 399.5,403.0 L 404.0,400.5 L 409.0,403.5 L 419.0,404.5 L 437.0,402.5 L 436.5,406.0 L 433.0,409.5 L 443.0,407.5 L 459.0,411.5 L 491.5,412.0 L 490.0,414.5 L 487.0,413.5 L 483.0,415.5 L 477.5,415.0 L 482.0,414.5 L 483.0,412.5 L 460.0,412.5 L 458.5,416.0 L 455.5,417.0 L 458.0,418.5 L 446.0,420.5 L 439.0,419.5 L 437.0,415.5 L 432.0,415.5 L 428.0,423.5 Z M 410.0,412.5 L 380.5,412.0 L 410.0,412.5 Z M 236.0,420.5 L 235.5,418.0 L 239.0,414.5 L 247.5,414.0 L 242.0,417.5 L 241.0,415.5 L 239.0,416.5 L 236.0,420.5 Z M 615.0,422.5 L 609.0,414.5 L 619.5,415.0 L 613.5,416.0 L 617.5,419.0 L 615.0,422.5 Z M 187.0,420.5 L 174.5,420.0 L 206.0,415.5 L 212.5,417.0 L 212.0,418.5 L 193.0,418.5 L 187.0,420.5 Z M 447.0,468.5 L 443.5,466.0 L 449.0,462.5 L 450.5,466.0 L 447.0,468.5 Z"/>
<path fill="#124166" d="M 364.0,171.5 L 360.5,162.0 L 360.5,151.0 L 363.0,148.5 L 364.5,149.0 L 365.5,155.0 L 364.5,161.0 L 367.5,166.0 L 364.0,171.5 Z M 448.0,167.5 L 448.5,161.0 L 450.0,158.5 L 451.5,159.0 L 450.5,157.0 L 452.5,157.0 L 451.5,155.0 L 454.0,157.5 L 457.0,155.5 L 457.5,159.0 L 459.5,160.0 L 458.0,161.5 L 456.0,159.5 L 448.0,167.5 Z M 447.0,193.5 L 445.5,182.0 L 447.5,183.0 L 449.5,173.0 L 456.0,163.5 L 460.0,160.5 L 463.0,161.5 L 465.0,158.5 L 468.5,161.0 L 466.5,163.0 L 472.0,166.5 L 476.0,164.5 L 479.0,165.5 L 480.0,162.5 L 486.0,167.5 L 492.0,168.5 L 499.5,173.0 L 494.5,177.0 L 497.5,181.0 L 495.0,181.5 L 478.0,176.5 L 486.5,173.0 L 483.0,170.5 L 471.0,171.5 L 461.0,176.5 L 465.5,168.0 L 462.0,168.5 L 453.5,178.0 L 454.5,180.0 L 448.5,184.0 L 449.5,188.0 L 447.0,193.5 Z M 513.0,163.5 L 510.5,163.0 L 512.0,158.5 L 514.0,160.5 L 517.0,158.5 L 518.5,160.0 L 513.0,163.5 Z M 514.0,173.5 L 508.5,172.0 L 511.0,166.5 L 515.5,171.0 L 514.0,173.5 Z M 358.0,184.5 L 350.5,184.0 L 352.0,182.5 L 357.0,183.5 L 356.5,179.0 L 359.0,179.5 L 358.5,178.0 L 361.0,176.5 L 360.5,180.0 L 362.5,181.0 L 358.0,184.5 Z M 522.0,196.5 L 514.0,196.5 L 512.5,195.0 L 515.0,191.5 L 520.0,192.5 L 522.0,196.5 Z M 538.0,225.5 L 531.0,224.5 L 531.5,223.0 L 529.5,222.0 L 531.5,220.0 L 529.5,219.0 L 530.5,218.0 L 516.0,204.5 L 508.0,201.5 L 497.5,203.0 L 501.0,200.5 L 508.0,200.5 L 507.0,198.5 L 503.5,199.0 L 507.0,196.5 L 518.0,200.5 L 531.5,214.0 L 538.0,225.5 Z M 341.0,245.5 L 341.5,242.0 L 338.0,239.5 L 337.0,241.5 L 334.0,240.5 L 333.0,242.5 L 328.0,243.5 L 326.5,241.0 L 331.5,236.0 L 330.5,235.0 L 332.5,234.0 L 333.5,229.0 L 346.0,211.5 L 348.5,217.0 L 337.5,235.0 L 340.0,235.5 L 350.0,228.5 L 351.5,231.0 L 345.5,244.0 L 341.0,245.5 Z M 534.0,249.5 L 521.0,234.5 L 526.0,236.5 L 530.0,241.5 L 533.5,242.0 L 534.0,249.5 Z M 486.0,274.5 L 484.5,271.0 L 485.5,258.0 L 483.5,257.0 L 486.5,251.0 L 491.0,248.5 L 494.5,258.0 L 488.5,263.0 L 486.0,274.5 Z M 516.0,266.5 L 513.5,264.0 L 515.0,254.5 L 516.5,257.0 L 516.0,266.5 Z M 619.0,273.5 L 608.5,271.0 L 613.0,268.5 L 622.5,272.0 L 619.0,273.5 Z M 550.0,276.5 L 546.5,274.0 L 546.5,272.0 L 548.0,270.5 L 550.0,271.5 L 551.0,269.5 L 553.5,273.0 L 550.0,276.5 Z M 583.0,283.5 L 576.0,283.5 L 577.5,282.0 L 571.0,278.5 L 564.5,271.0 L 567.0,269.5 L 583.0,283.5 Z M 292.0,334.5 L 246.5,334.0 L 250.5,332.0 L 248.5,331.0 L 252.5,328.0 L 252.5,323.0 L 254.0,325.5 L 255.5,324.0 L 254.0,321.5 L 251.5,322.0 L 251.0,317.5 L 259.0,322.5 L 262.5,321.0 L 260.5,318.0 L 261.5,317.0 L 259.0,320.5 L 257.0,317.5 L 253.5,317.0 L 255.0,314.5 L 260.0,313.5 L 259.5,315.0 L 264.0,317.5 L 270.5,315.0 L 268.0,312.5 L 267.5,315.0 L 265.5,315.0 L 268.5,308.0 L 266.5,306.0 L 269.5,305.0 L 268.0,303.5 L 263.0,304.5 L 261.5,302.0 L 264.0,302.5 L 265.0,300.5 L 269.0,301.5 L 271.5,299.0 L 271.5,296.0 L 276.5,290.0 L 272.0,289.5 L 271.5,286.0 L 274.0,285.5 L 278.0,279.5 L 281.5,281.0 L 282.0,285.5 L 288.5,286.0 L 285.0,288.5 L 282.5,288.0 L 282.5,291.0 L 285.5,294.0 L 281.5,299.0 L 284.5,300.0 L 285.5,306.0 L 284.5,310.0 L 279.5,312.0 L 282.0,315.5 L 284.5,313.0 L 283.5,312.0 L 285.5,312.0 L 284.5,316.0 L 286.5,317.0 L 284.5,320.0 L 286.5,322.0 L 281.0,325.5 L 279.5,321.0 L 275.0,319.5 L 269.5,325.0 L 270.0,326.5 L 267.0,326.5 L 266.0,324.5 L 264.5,328.0 L 270.0,327.5 L 271.0,329.5 L 280.0,328.5 L 281.0,330.5 L 289.5,332.0 L 286.0,333.5 L 292.0,334.5 Z M 612.0,303.5 L 608.5,301.0 L 607.5,295.0 L 609.0,293.5 L 618.0,293.5 L 621.0,295.5 L 624.0,293.5 L 628.5,296.0 L 618.0,301.5 L 613.0,301.5 L 612.0,303.5 Z M 538.0,299.5 L 531.5,299.0 L 537.0,294.5 L 538.0,299.5 Z M 387.0,328.5 L 379.0,323.5 L 375.5,324.0 L 376.5,322.0 L 366.5,312.0 L 368.0,308.5 L 388.5,326.0 L 387.0,328.5 Z M 496.0,319.5 L 492.5,318.0 L 499.0,311.5 L 500.0,312.5 L 501.0,309.5 L 501.5,314.0 L 498.0,318.5 L 496.0,317.5 L 496.0,319.5 Z M 452.0,327.5 L 449.5,325.0 L 452.5,320.0 L 459.0,313.5 L 461.0,314.5 L 452.0,327.5 Z M 680.0,320.5 L 675.5,319.0 L 678.0,316.5 L 687.5,314.0 L 686.5,316.0 L 688.0,318.5 L 680.0,320.5 Z M 663.0,324.5 L 652.5,324.0 L 658.0,322.5 L 658.0,320.5 L 661.0,321.5 L 662.0,319.5 L 667.0,319.5 L 668.0,317.5 L 671.0,318.5 L 674.0,315.5 L 675.5,317.0 L 670.5,321.0 L 672.0,322.5 L 668.0,321.5 L 667.0,323.5 L 664.0,322.5 L 663.0,324.5 Z M 686.0,327.5 L 680.5,325.0 L 684.0,322.5 L 697.0,319.5 L 699.5,322.0 L 689.0,326.5 L 687.0,325.5 L 686.0,327.5 Z M 235.0,334.5 L 214.0,334.5 L 205.5,326.0 L 216.0,327.5 L 218.0,325.5 L 220.5,327.0 L 218.5,329.0 L 222.0,331.5 L 230.0,328.5 L 231.5,330.0 L 230.5,332.0 L 234.0,332.5 L 235.0,334.5 Z M 402.0,334.5 L 394.0,334.5 L 388.5,330.0 L 390.5,329.0 L 388.5,328.0 L 392.0,326.5 L 402.0,334.5 Z M 438.0,335.5 L 432.5,335.0 L 441.0,327.5 L 446.5,329.0 L 441.0,334.5 L 438.0,333.5 L 438.0,335.5 Z M 465.0,334.5 L 456.5,334.0 L 459.0,330.5 L 467.0,327.5 L 469.5,329.0 L 469.5,332.0 L 472.5,333.0 L 465.0,334.5 Z M 386.0,334.5 L 371.0,334.5 L 370.0,332.5 L 366.5,332.0 L 374.0,331.5 L 374.0,333.5 L 382.0,333.5 L 381.5,332.0 L 384.0,331.5 L 386.0,334.5 Z M 204.0,372.5 L 199.5,367.0 L 201.5,364.0 L 200.5,363.0 L 205.5,358.0 L 203.5,356.0 L 204.5,351.0 L 201.5,342.0 L 202.0,340.5 L 204.5,341.0 L 203.0,339.5 L 363.5,341.0 L 343.0,341.5 L 336.0,344.5 L 335.0,347.5 L 331.0,347.5 L 326.0,345.5 L 324.0,342.5 L 321.0,342.5 L 319.5,344.0 L 320.5,346.0 L 317.5,347.0 L 324.5,348.0 L 313.0,348.5 L 310.0,351.5 L 308.0,350.5 L 306.0,353.5 L 305.0,352.5 L 299.5,360.0 L 299.0,366.5 L 295.5,359.0 L 296.5,357.0 L 294.5,356.0 L 295.5,355.0 L 288.0,349.5 L 258.0,348.5 L 255.5,351.0 L 256.5,356.0 L 254.5,356.0 L 252.0,370.5 L 245.5,367.0 L 243.0,348.5 L 241.0,347.5 L 240.0,350.5 L 238.0,345.5 L 236.0,347.5 L 234.0,345.5 L 217.0,345.5 L 213.5,348.0 L 215.5,350.0 L 213.5,360.0 L 204.0,372.5 Z M 664.0,350.5 L 630.5,350.0 L 664.0,350.5 Z M 340.0,426.5 L 335.0,426.5 L 336.5,425.0 L 332.5,423.0 L 335.0,422.5 L 338.0,417.5 L 348.0,417.5 L 343.5,419.0 L 344.5,420.0 L 340.0,426.5 Z M 594.0,430.5 L 566.0,429.5 L 566.0,427.5 L 561.5,427.0 L 578.0,426.5 L 574.5,428.0 L 587.0,427.5 L 593.0,428.5 L 594.0,430.5 Z M 361.0,434.5 L 334.0,434.5 L 328.0,433.5 L 327.5,432.0 L 356.0,432.5 L 361.0,434.5 Z M 474.0,449.5 L 468.5,448.0 L 474.0,446.5 L 474.0,444.5 L 488.0,441.5 L 496.5,443.0 L 478.0,448.5 L 474.0,447.5 L 474.0,449.5 Z M 448.0,488.5 L 445.5,488.0 L 446.5,487.0 L 438.5,480.0 L 438.0,477.5 L 436.0,478.5 L 430.5,475.0 L 433.0,472.5 L 441.0,475.5 L 444.5,475.0 L 431.0,466.5 L 422.0,466.5 L 424.5,470.0 L 422.0,471.5 L 421.0,469.5 L 420.0,470.5 L 392.0,462.5 L 390.0,460.5 L 388.0,461.5 L 387.0,459.5 L 382.0,460.5 L 382.0,458.5 L 378.0,459.5 L 378.0,457.5 L 370.5,457.0 L 409.0,456.5 L 414.0,460.5 L 440.0,464.5 L 446.0,469.5 L 447.0,468.5 L 448.0,471.5 L 454.0,467.5 L 468.0,465.5 L 465.5,470.0 L 452.5,481.0 L 453.5,482.0 L 448.0,488.5 Z"/>
<path fill="#26628c" d="M 473.0,127.5 L 471.5,122.0 L 465.5,116.0 L 466.5,114.0 L 464.5,111.0 L 467.0,107.5 L 467.5,110.0 L 472.0,112.5 L 476.0,106.5 L 477.5,115.0 L 480.5,120.0 L 473.0,127.5 Z M 408.0,136.5 L 401.5,132.0 L 397.5,127.0 L 399.0,125.5 L 401.5,126.0 L 408.5,135.0 L 408.0,136.5 Z M 476.0,150.5 L 475.5,144.0 L 480.5,132.0 L 479.5,130.0 L 482.0,128.5 L 484.5,132.0 L 480.5,137.0 L 476.0,150.5 Z M 500.0,139.5 L 500.5,133.0 L 503.0,128.5 L 505.5,130.0 L 505.5,136.0 L 504.0,133.5 L 500.0,139.5 Z M 470.0,145.5 L 468.5,143.0 L 469.5,140.0 L 478.0,131.5 L 477.5,136.0 L 470.0,145.5 Z M 420.0,149.5 L 410.5,139.0 L 412.0,137.5 L 414.0,136.5 L 416.5,139.0 L 420.0,149.5 Z M 410.0,150.5 L 405.5,146.0 L 407.5,144.0 L 407.0,137.5 L 410.5,145.0 L 410.0,150.5 Z M 473.0,166.5 L 467.0,163.5 L 468.5,161.0 L 465.0,158.5 L 461.0,161.5 L 457.5,156.0 L 454.5,155.0 L 466.0,140.5 L 465.5,146.0 L 460.5,153.0 L 465.0,152.5 L 467.0,156.5 L 472.0,156.5 L 476.5,159.0 L 471.5,161.0 L 479.0,162.5 L 479.5,164.0 L 473.0,166.5 Z M 516.0,157.5 L 513.5,146.0 L 516.0,140.5 L 515.5,150.0 L 517.5,154.0 L 516.0,157.5 Z M 401.0,155.5 L 397.5,155.0 L 396.5,147.0 L 402.0,150.5 L 403.0,143.5 L 404.5,153.0 L 401.0,155.5 Z M 441.0,193.5 L 439.5,189.0 L 436.5,188.0 L 435.5,183.0 L 431.5,179.0 L 434.5,176.0 L 426.0,168.5 L 420.5,167.0 L 425.5,174.0 L 425.0,177.5 L 415.0,171.5 L 404.5,171.0 L 413.5,163.0 L 415.0,158.5 L 424.5,158.0 L 406.5,157.0 L 411.0,154.5 L 422.0,154.5 L 421.0,151.5 L 424.0,153.5 L 421.0,143.5 L 424.0,143.5 L 432.0,153.5 L 434.0,149.5 L 437.5,154.0 L 438.5,161.0 L 437.0,164.5 L 431.0,161.5 L 429.0,162.5 L 428.0,160.5 L 425.5,164.0 L 433.0,169.5 L 432.5,171.0 L 435.0,171.5 L 439.5,178.0 L 441.5,182.0 L 441.0,193.5 Z M 448.0,156.5 L 447.5,151.0 L 454.0,144.5 L 458.0,143.5 L 448.0,156.5 Z M 490.0,157.5 L 482.5,154.0 L 482.5,151.0 L 485.0,151.5 L 486.0,149.5 L 487.0,151.5 L 490.0,145.5 L 490.0,157.5 Z M 507.0,160.5 L 509.0,149.5 L 512.5,152.0 L 507.0,160.5 Z M 364.0,181.5 L 361.0,180.5 L 360.5,178.0 L 364.5,175.0 L 364.5,170.0 L 367.0,167.5 L 370.5,171.0 L 371.5,177.0 L 370.0,179.5 L 365.0,179.5 L 364.0,181.5 Z M 489.0,211.5 L 492.5,205.0 L 491.5,203.0 L 494.5,201.0 L 488.5,201.0 L 498.0,190.5 L 504.5,190.0 L 502.5,188.0 L 504.0,186.5 L 500.0,187.5 L 490.5,185.0 L 494.0,183.5 L 495.0,185.5 L 496.5,184.0 L 497.5,181.0 L 494.5,179.0 L 499.0,177.5 L 517.0,180.5 L 514.5,185.0 L 517.5,187.0 L 517.0,188.5 L 519.0,187.5 L 522.5,190.0 L 520.0,190.5 L 520.0,192.5 L 514.0,191.5 L 513.0,196.5 L 503.0,196.5 L 502.5,200.0 L 494.5,206.0 L 495.5,209.0 L 489.0,211.5 Z M 445.0,218.5 L 438.5,201.0 L 441.0,195.5 L 444.0,212.5 L 445.5,195.0 L 448.0,191.5 L 449.5,192.0 L 449.5,187.0 L 451.0,187.5 L 452.0,185.5 L 451.5,199.0 L 448.5,204.0 L 445.0,218.5 Z M 348.0,216.5 L 346.5,214.0 L 347.0,207.5 L 336.0,208.5 L 334.5,207.0 L 345.0,195.5 L 349.5,199.0 L 347.5,201.0 L 349.0,202.5 L 363.0,197.5 L 372.5,198.0 L 358.0,206.5 L 348.0,216.5 Z M 526.0,230.5 L 518.5,222.0 L 519.0,219.5 L 523.5,223.0 L 526.0,230.5 Z M 608.0,271.5 L 607.0,269.5 L 603.0,270.5 L 604.0,268.5 L 599.0,268.5 L 598.0,266.5 L 596.0,267.5 L 595.0,264.5 L 576.0,253.5 L 570.5,248.0 L 570.5,245.0 L 563.5,240.0 L 567.0,240.5 L 570.0,243.5 L 571.0,241.5 L 584.0,251.5 L 597.0,257.5 L 594.0,258.5 L 586.5,256.0 L 600.0,264.5 L 611.5,269.0 L 608.0,271.5 Z M 500.0,252.5 L 492.0,245.5 L 487.0,244.5 L 486.0,246.5 L 484.5,245.0 L 488.0,242.5 L 496.0,242.5 L 501.5,250.0 L 500.0,252.5 Z M 521.0,252.5 L 519.5,251.0 L 520.5,247.0 L 518.5,246.0 L 520.0,242.5 L 523.5,248.0 L 523.5,251.0 L 521.0,252.5 Z M 512.0,268.5 L 510.5,262.0 L 512.0,264.5 L 512.5,259.0 L 510.5,256.0 L 510.0,247.5 L 514.5,254.0 L 514.5,262.0 L 512.0,268.5 Z M 414.0,281.5 L 404.5,264.0 L 402.5,264.0 L 400.0,253.5 L 402.5,255.0 L 401.5,256.0 L 403.5,257.0 L 415.5,280.0 L 414.0,281.5 Z M 448.0,261.5 L 442.0,261.5 L 440.5,259.0 L 452.0,258.5 L 453.5,260.0 L 448.0,261.5 Z M 601.0,276.5 L 575.0,269.5 L 566.0,264.5 L 564.5,263.0 L 565.5,260.0 L 576.0,262.5 L 595.0,273.5 L 602.0,274.5 L 601.0,276.5 Z M 567.0,303.5 L 546.5,282.0 L 547.0,274.5 L 550.0,276.5 L 554.0,272.5 L 560.0,273.5 L 561.0,271.5 L 570.0,279.5 L 572.0,278.5 L 577.0,281.5 L 575.5,284.0 L 584.5,290.0 L 583.0,291.5 L 577.0,289.5 L 555.0,279.5 L 567.0,303.5 Z M 620.0,278.5 L 602.5,276.0 L 607.0,275.5 L 605.5,274.0 L 608.0,273.5 L 617.0,276.5 L 627.0,276.5 L 623.5,275.0 L 630.0,274.5 L 639.5,277.0 L 620.0,278.5 Z M 457.0,281.5 L 450.0,281.5 L 445.5,279.0 L 455.0,275.5 L 460.5,280.0 L 457.0,281.5 Z M 432.0,315.5 L 429.5,303.0 L 413.5,285.0 L 415.0,281.5 L 419.0,285.5 L 420.5,285.0 L 430.0,299.5 L 439.0,305.5 L 446.5,306.0 L 439.0,313.5 L 437.5,309.0 L 435.0,308.5 L 432.0,315.5 Z M 411.0,292.5 L 409.5,292.0 L 410.5,289.0 L 408.5,289.0 L 409.5,287.0 L 407.5,286.0 L 409.0,282.5 L 412.5,289.0 L 411.0,292.5 Z M 235.0,309.5 L 233.5,306.0 L 231.0,306.5 L 228.5,303.0 L 234.0,302.5 L 232.5,301.0 L 235.5,299.0 L 234.5,296.0 L 237.0,296.5 L 239.0,293.5 L 239.5,297.0 L 237.5,298.0 L 239.5,300.0 L 238.5,302.0 L 241.0,303.5 L 244.0,302.5 L 244.5,305.0 L 235.0,309.5 Z M 510.0,318.5 L 508.0,312.5 L 503.0,315.5 L 501.5,314.0 L 514.0,298.5 L 515.5,300.0 L 515.5,309.0 L 510.0,318.5 Z M 536.0,317.5 L 535.5,311.0 L 530.0,298.5 L 538.5,300.0 L 538.5,311.0 L 536.0,317.5 Z M 706.0,319.5 L 705.0,316.5 L 720.0,310.5 L 720.0,307.5 L 728.5,306.0 L 727.0,308.5 L 725.5,308.0 L 726.0,309.5 L 724.0,308.5 L 724.0,310.5 L 709.0,318.5 L 707.0,317.5 L 706.0,319.5 Z M 246.0,334.5 L 242.5,334.0 L 245.5,332.0 L 246.5,328.0 L 244.5,325.0 L 246.5,324.0 L 242.5,320.0 L 242.5,316.0 L 239.5,313.0 L 240.0,307.5 L 243.0,308.5 L 244.0,311.5 L 247.0,311.5 L 248.0,308.5 L 251.5,309.0 L 245.5,316.0 L 248.0,318.5 L 250.5,318.0 L 252.5,328.0 L 250.0,328.5 L 248.5,331.0 L 250.5,332.0 L 246.0,334.5 Z M 234.0,319.5 L 231.0,319.5 L 231.0,316.5 L 226.0,317.5 L 224.5,314.0 L 227.5,315.0 L 225.5,312.0 L 232.0,309.5 L 234.5,315.0 L 234.0,319.5 Z M 446.0,328.5 L 442.0,328.5 L 441.5,326.0 L 448.5,318.0 L 446.5,317.0 L 458.0,309.5 L 458.5,314.0 L 446.0,328.5 Z M 237.0,334.5 L 231.0,332.5 L 230.0,328.5 L 225.0,328.5 L 222.0,331.5 L 218.5,329.0 L 220.5,327.0 L 217.5,325.0 L 226.0,325.5 L 230.0,323.5 L 230.5,327.0 L 234.0,328.5 L 237.0,324.5 L 239.0,324.5 L 240.5,327.0 L 238.5,328.0 L 241.5,332.0 L 237.0,332.5 L 237.0,334.5 Z M 370.0,334.5 L 349.5,333.0 L 352.0,331.5 L 366.0,331.5 L 370.0,332.5 L 370.0,334.5 Z M 594.0,336.5 L 569.5,335.0 L 582.0,334.5 L 594.0,336.5 Z M 397.0,336.5 L 356.5,336.0 L 397.0,336.5 Z M 285.0,350.5 L 257.5,350.0 L 285.0,350.5 Z M 377.0,350.5 L 340.5,350.0 L 377.0,350.5 Z M 330.0,430.5 L 322.5,429.0 L 331.0,426.5 L 330.0,430.5 Z M 610.0,439.5 L 602.0,432.5 L 591.5,431.0 L 594.0,430.5 L 594.0,428.5 L 597.0,428.5 L 605.0,431.5 L 611.5,437.0 L 610.0,439.5 Z M 368.0,432.5 L 342.5,432.0 L 368.0,432.5 Z M 497.0,444.5 L 492.5,444.0 L 496.0,443.5 L 493.5,442.0 L 498.0,440.5 L 513.5,439.0 L 497.0,444.5 Z M 391.0,453.5 L 371.5,451.0 L 385.0,451.5 L 384.0,449.5 L 387.0,449.5 L 387.0,451.5 L 394.5,452.0 L 391.0,453.5 Z M 374.0,458.5 L 358.5,456.0 L 368.0,455.5 L 374.0,458.5 Z"/>
<path fill="#dce2e5" d="M 514.0,138.5 L 509.5,124.0 L 510.0,119.5 L 513.5,126.0 L 514.0,138.5 Z M 369.0,262.5 L 369.0,245.5 L 370.5,251.0 L 369.0,262.5 Z M 284.0,351.5 L 258.5,351.0 L 284.0,351.5 Z M 377.0,351.5 L 342.5,351.0 L 377.0,351.5 Z M 664.0,351.5 L 630.5,351.0 L 664.0,351.5 Z M 430.0,396.5 L 409.0,396.5 L 405.0,393.5 L 404.0,394.5 L 398.5,386.0 L 399.5,373.0 L 401.0,374.5 L 409.0,374.5 L 412.5,384.0 L 418.0,387.5 L 431.0,385.5 L 432.5,387.0 L 432.5,395.0 L 430.0,396.5 Z M 536.0,397.5 L 521.0,397.5 L 515.0,394.5 L 514.0,395.5 L 507.5,387.0 L 507.5,375.0 L 518.0,375.5 L 519.5,384.0 L 523.0,387.5 L 533.0,387.5 L 537.5,381.0 L 537.5,375.0 L 547.0,373.5 L 547.5,381.0 L 549.5,384.0 L 547.5,387.0 L 548.5,388.0 L 546.0,392.5 L 536.0,397.5 Z M 197.0,404.5 L 189.0,404.5 L 188.5,401.0 L 191.5,399.0 L 191.5,396.0 L 196.5,391.0 L 196.5,388.0 L 199.5,386.0 L 198.5,385.0 L 202.5,381.0 L 202.0,379.5 L 216.0,377.5 L 213.5,383.0 L 215.0,384.5 L 225.0,385.5 L 229.5,382.0 L 228.0,374.5 L 230.0,377.5 L 231.0,375.5 L 239.5,376.0 L 232.5,377.0 L 240.0,377.5 L 243.5,384.0 L 243.5,395.0 L 245.5,397.0 L 244.0,400.5 L 231.0,401.5 L 228.5,397.0 L 229.5,394.0 L 227.0,392.5 L 218.0,394.5 L 210.0,393.5 L 206.0,402.5 L 197.0,404.5 Z M 314.0,398.5 L 304.0,397.5 L 299.5,394.0 L 297.5,383.0 L 302.0,374.5 L 309.5,375.0 L 311.5,382.0 L 310.5,384.0 L 314.0,387.5 L 321.0,388.5 L 330.5,386.0 L 331.5,393.0 L 330.0,395.5 L 328.5,395.0 L 329.0,396.5 L 314.0,398.5 Z M 359.0,396.5 L 348.0,396.5 L 346.5,395.0 L 348.5,389.0 L 347.5,385.0 L 349.5,382.0 L 348.5,376.0 L 351.0,374.5 L 360.5,375.0 L 359.5,381.0 L 361.5,386.0 L 359.0,396.5 Z M 390.0,396.5 L 379.0,396.5 L 377.5,395.0 L 379.5,386.0 L 378.5,378.0 L 381.0,374.5 L 390.0,374.5 L 391.5,376.0 L 390.5,377.0 L 392.5,379.0 L 390.5,383.0 L 390.0,396.5 Z M 463.0,396.5 L 447.0,396.5 L 445.5,395.0 L 443.5,387.0 L 444.5,384.0 L 442.5,382.0 L 444.5,381.0 L 442.5,379.0 L 443.0,374.5 L 451.0,374.5 L 454.5,378.0 L 453.5,382.0 L 455.0,384.5 L 458.5,380.0 L 457.5,378.0 L 461.0,374.5 L 466.5,375.0 L 467.5,383.0 L 463.0,396.5 Z M 494.0,396.5 L 478.0,396.5 L 476.5,395.0 L 475.5,393.0 L 477.5,391.0 L 474.5,387.0 L 474.5,379.0 L 472.5,377.0 L 475.0,374.5 L 481.0,374.5 L 483.5,377.0 L 484.0,384.5 L 487.5,384.0 L 486.5,379.0 L 490.0,374.5 L 499.5,377.0 L 495.5,390.0 L 496.5,393.0 L 494.0,396.5 Z M 588.0,398.5 L 568.0,396.5 L 556.0,397.5 L 556.5,376.0 L 562.0,374.5 L 568.0,377.5 L 568.5,387.0 L 570.0,388.5 L 587.0,389.5 L 589.0,387.5 L 588.0,398.5 Z M 259.0,400.5 L 249.5,399.0 L 252.5,385.0 L 254.5,385.0 L 254.5,381.0 L 252.5,380.0 L 255.5,379.0 L 255.0,376.5 L 284.0,375.5 L 291.5,378.0 L 283.5,383.0 L 293.0,398.5 L 287.0,397.5 L 278.0,399.5 L 274.5,393.0 L 275.5,392.0 L 273.5,391.0 L 274.5,390.0 L 272.5,389.0 L 273.5,388.0 L 271.5,387.0 L 272.5,386.0 L 269.0,383.5 L 265.5,385.0 L 262.5,399.0 L 259.0,400.5 Z M 617.0,399.5 L 599.0,398.5 L 595.5,384.0 L 592.5,381.0 L 594.5,380.0 L 592.5,376.0 L 604.0,376.5 L 605.5,385.0 L 608.0,387.5 L 613.0,375.5 L 622.0,375.5 L 620.5,377.0 L 622.5,380.0 L 619.5,383.0 L 621.5,386.0 L 618.5,389.0 L 620.5,390.0 L 618.5,392.0 L 619.5,396.0 L 617.0,399.5 Z M 669.0,402.5 L 645.0,399.5 L 636.0,400.5 L 634.5,398.0 L 635.5,387.0 L 633.5,386.0 L 635.5,384.0 L 634.5,377.0 L 660.0,375.5 L 661.5,377.0 L 660.0,380.5 L 646.0,379.5 L 645.5,382.0 L 647.5,384.0 L 645.5,385.0 L 646.5,389.0 L 656.0,391.5 L 667.0,390.5 L 669.5,397.0 L 669.0,402.5 Z M 703.0,404.5 L 691.0,404.5 L 674.5,399.0 L 674.5,395.0 L 679.0,389.5 L 686.0,393.5 L 689.0,391.5 L 695.0,394.5 L 696.0,392.5 L 697.5,393.0 L 699.5,387.0 L 695.0,380.5 L 694.0,382.5 L 693.0,380.5 L 683.0,381.5 L 678.0,379.5 L 676.0,376.5 L 699.0,375.5 L 686.5,377.0 L 703.0,377.5 L 708.5,382.0 L 712.5,387.0 L 714.5,397.0 L 709.0,402.5 L 703.0,404.5 Z"/>
<path fill="#2889be" d="M 464.0,112.5 L 460.5,110.0 L 461.0,108.5 L 459.5,109.0 L 458.5,104.0 L 453.5,100.0 L 451.5,95.0 L 453.0,93.5 L 467.5,107.0 L 464.0,112.5 Z M 397.0,111.5 L 373.5,96.0 L 375.0,94.5 L 379.0,95.5 L 397.0,108.5 L 398.5,110.0 L 397.0,111.5 Z M 498.0,106.5 L 495.5,105.0 L 500.0,100.5 L 511.0,94.5 L 514.5,95.0 L 510.0,98.5 L 509.0,97.5 L 509.0,99.5 L 506.0,99.5 L 501.0,104.5 L 500.0,103.5 L 498.0,106.5 Z M 359.0,175.5 L 357.5,174.0 L 360.5,171.0 L 357.5,163.0 L 358.5,140.0 L 365.5,110.0 L 369.5,99.0 L 372.0,97.5 L 373.5,99.0 L 371.5,100.0 L 372.5,101.0 L 367.5,117.0 L 365.5,117.0 L 363.5,124.0 L 364.5,129.0 L 363.0,128.5 L 361.5,132.0 L 362.5,138.0 L 360.5,138.0 L 360.5,151.0 L 358.5,152.0 L 358.5,161.0 L 360.5,161.0 L 359.5,165.0 L 361.5,165.0 L 361.5,171.0 L 363.0,170.5 L 364.5,174.0 L 359.0,175.5 Z M 532.0,177.5 L 529.0,177.5 L 525.0,173.5 L 522.5,174.0 L 524.5,172.0 L 523.5,170.0 L 525.5,170.0 L 524.5,167.0 L 526.0,167.5 L 527.5,164.0 L 526.5,156.0 L 528.5,156.0 L 528.5,152.0 L 526.5,151.0 L 527.5,146.0 L 525.5,144.0 L 523.5,134.0 L 524.5,129.0 L 522.5,129.0 L 523.5,126.0 L 521.5,125.0 L 517.5,109.0 L 518.5,107.0 L 516.5,107.0 L 518.0,101.5 L 523.5,117.0 L 529.5,145.0 L 529.5,164.0 L 526.5,173.0 L 531.0,173.5 L 532.0,177.5 Z M 482.0,119.5 L 479.5,118.0 L 493.0,106.5 L 494.5,109.0 L 488.0,112.5 L 482.0,119.5 Z M 423.0,134.5 L 419.0,133.5 L 407.5,121.0 L 409.0,119.5 L 413.0,121.5 L 418.0,127.5 L 420.0,124.5 L 423.0,134.5 Z M 465.0,134.5 L 463.5,132.0 L 468.0,123.5 L 472.5,128.0 L 465.0,134.5 Z M 438.0,136.5 L 432.0,130.5 L 425.5,128.0 L 430.0,126.5 L 439.0,132.5 L 438.0,136.5 Z M 411.0,138.5 L 405.5,132.0 L 406.0,130.5 L 413.5,136.0 L 411.0,138.5 Z M 437.0,151.5 L 432.5,150.0 L 431.0,143.5 L 436.5,147.0 L 438.5,150.0 L 437.0,151.5 Z M 408.0,179.5 L 400.0,179.5 L 385.5,174.0 L 401.5,167.0 L 401.0,165.5 L 392.0,164.5 L 410.0,162.5 L 409.0,160.5 L 403.5,159.0 L 406.0,157.5 L 424.0,157.5 L 415.0,158.5 L 413.5,163.0 L 404.5,171.0 L 406.5,172.0 L 400.5,174.0 L 409.0,175.5 L 411.5,178.0 L 407.0,177.5 L 408.0,179.5 Z M 378.0,172.5 L 374.0,172.5 L 370.5,167.0 L 376.0,165.5 L 378.0,172.5 Z M 349.0,198.5 L 345.5,196.0 L 350.5,188.0 L 347.5,187.0 L 346.5,183.0 L 357.0,174.5 L 355.5,179.0 L 349.5,184.0 L 354.5,185.0 L 349.5,186.0 L 352.0,187.5 L 356.0,187.5 L 361.0,184.5 L 363.5,186.0 L 349.0,198.5 Z M 388.0,183.5 L 383.5,183.0 L 387.0,178.5 L 393.0,177.5 L 394.5,179.0 L 393.0,181.5 L 388.0,183.5 Z M 618.0,210.5 L 616.0,210.5 L 608.5,203.0 L 605.0,195.5 L 603.5,202.0 L 601.5,201.0 L 593.5,183.0 L 593.0,177.5 L 621.0,206.5 L 625.5,208.0 L 620.0,208.5 L 618.0,210.5 Z M 562.0,212.5 L 547.5,203.0 L 543.5,196.0 L 535.5,188.0 L 538.0,186.5 L 540.0,187.5 L 540.5,186.0 L 537.0,181.5 L 534.5,181.0 L 534.0,178.5 L 538.0,178.5 L 541.5,182.0 L 543.5,185.0 L 541.5,187.0 L 547.5,193.0 L 546.5,195.0 L 549.0,197.5 L 551.5,197.0 L 553.5,203.0 L 563.5,211.0 L 562.0,212.5 Z M 563.0,193.5 L 560.5,193.0 L 558.5,188.0 L 558.5,186.0 L 562.0,184.5 L 566.5,189.0 L 566.5,191.0 L 563.0,193.5 Z M 438.0,203.5 L 434.5,197.0 L 435.0,188.5 L 439.5,199.0 L 438.0,203.5 Z M 330.0,232.5 L 329.5,230.0 L 335.5,217.0 L 332.0,217.5 L 329.0,210.5 L 324.0,213.5 L 322.5,207.0 L 325.0,199.5 L 326.5,203.0 L 330.0,204.5 L 332.5,201.0 L 329.5,197.0 L 337.0,193.5 L 339.5,202.0 L 331.5,208.0 L 347.0,207.5 L 347.5,209.0 L 341.5,214.0 L 342.5,215.0 L 337.5,220.0 L 338.5,221.0 L 333.5,226.0 L 334.5,228.0 L 333.0,227.5 L 333.5,229.0 L 330.0,232.5 Z M 591.0,209.5 L 588.5,207.0 L 593.0,198.5 L 596.5,204.0 L 591.0,209.5 Z M 665.0,263.5 L 658.0,259.5 L 654.0,254.5 L 649.0,253.5 L 644.0,245.5 L 639.0,252.5 L 631.0,244.5 L 633.5,252.0 L 630.0,254.5 L 618.5,239.0 L 613.0,236.5 L 615.5,245.0 L 623.0,252.5 L 629.5,255.0 L 627.5,256.0 L 628.5,261.0 L 623.0,263.5 L 621.5,261.0 L 626.5,259.0 L 625.0,257.5 L 622.0,258.5 L 620.0,255.5 L 618.0,256.5 L 614.5,254.0 L 604.0,230.5 L 602.5,231.0 L 601.5,237.0 L 598.5,237.0 L 600.5,222.0 L 603.0,220.5 L 606.0,225.5 L 609.5,221.0 L 602.5,212.0 L 600.5,206.0 L 602.0,205.5 L 614.5,220.0 L 620.5,224.0 L 627.5,235.0 L 636.0,243.5 L 637.0,239.5 L 643.0,244.5 L 643.5,242.0 L 637.5,231.0 L 633.5,228.0 L 635.0,233.5 L 630.5,225.0 L 632.0,219.5 L 640.0,227.5 L 641.5,226.0 L 634.5,217.0 L 632.0,208.5 L 651.5,232.0 L 652.5,237.0 L 658.5,246.0 L 654.5,249.0 L 658.5,251.0 L 661.0,257.5 L 664.0,257.5 L 665.0,255.5 L 666.5,257.0 L 665.0,263.5 Z M 573.0,221.5 L 571.5,221.0 L 572.5,219.0 L 569.5,218.0 L 570.0,216.5 L 567.5,217.0 L 569.0,214.5 L 577.5,219.0 L 573.0,221.5 Z M 576.0,232.5 L 561.5,221.0 L 570.0,220.5 L 571.5,222.0 L 570.5,225.0 L 577.5,231.0 L 576.0,232.5 Z M 336.0,266.5 L 335.0,259.5 L 333.0,265.5 L 332.5,260.0 L 331.0,259.5 L 323.0,265.5 L 319.5,266.0 L 321.5,258.0 L 330.5,246.0 L 328.0,246.5 L 328.5,245.0 L 325.5,244.0 L 331.0,244.5 L 331.0,242.5 L 340.0,240.5 L 336.5,253.0 L 336.0,266.5 Z M 575.0,262.5 L 563.5,258.0 L 566.0,256.5 L 567.0,258.5 L 569.0,257.5 L 574.0,261.5 L 576.0,260.5 L 575.0,262.5 Z M 338.0,284.5 L 334.5,279.0 L 334.0,267.5 L 336.5,268.0 L 335.5,273.0 L 337.5,273.0 L 337.5,281.0 L 339.5,281.0 L 338.0,284.5 Z M 364.0,312.5 L 350.5,291.0 L 349.5,287.0 L 351.0,287.5 L 352.0,284.5 L 352.5,290.0 L 366.5,308.0 L 364.0,312.5 Z M 698.0,312.5 L 695.5,312.0 L 698.5,310.0 L 698.0,308.5 L 706.5,306.0 L 704.0,310.5 L 698.0,312.5 Z M 240.0,325.5 L 237.0,324.5 L 235.0,320.5 L 231.0,323.5 L 227.5,321.0 L 230.0,318.5 L 234.5,319.0 L 234.5,315.0 L 232.5,313.0 L 234.0,307.5 L 235.0,309.5 L 239.5,308.0 L 239.5,313.0 L 242.5,316.0 L 241.5,318.0 L 245.5,322.0 L 240.0,325.5 Z M 669.0,325.5 L 662.5,325.0 L 687.0,318.5 L 690.5,321.0 L 669.0,325.5 Z M 702.0,324.5 L 696.5,324.0 L 709.0,319.5 L 713.5,320.0 L 702.0,324.5 Z M 666.0,334.5 L 659.5,334.0 L 678.5,330.0 L 678.0,331.5 L 666.0,334.5 Z M 347.0,334.5 L 330.0,333.5 L 329.5,332.0 L 333.0,330.5 L 334.0,332.5 L 341.0,331.5 L 342.0,333.5 L 349.5,333.0 L 347.0,334.5 Z M 415.0,456.5 L 357.0,456.5 L 320.0,451.5 L 311.0,449.5 L 310.0,447.5 L 305.0,448.5 L 308.5,447.0 L 293.0,439.5 L 282.5,431.0 L 276.5,419.0 L 292.0,417.5 L 293.0,422.5 L 294.0,421.5 L 306.5,430.0 L 301.0,429.5 L 293.0,423.5 L 292.5,426.0 L 298.0,434.5 L 316.0,444.5 L 330.0,448.5 L 357.0,451.5 L 371.0,450.5 L 374.0,452.5 L 386.0,453.5 L 417.0,453.5 L 454.5,450.0 L 415.0,456.5 Z M 611.0,436.5 L 600.0,429.5 L 588.0,426.5 L 582.5,427.0 L 584.5,426.0 L 583.0,424.5 L 596.0,425.5 L 598.0,422.5 L 524.0,421.5 L 512.0,424.5 L 492.5,425.0 L 520.0,420.5 L 577.0,417.5 L 611.0,419.5 L 613.5,421.0 L 615.0,425.5 L 617.0,423.5 L 618.0,424.5 L 619.0,421.5 L 620.0,424.5 L 625.5,426.0 L 625.0,429.5 L 623.5,429.0 L 624.5,427.0 L 622.5,427.0 L 622.5,431.0 L 620.0,433.5 L 615.0,433.5 L 611.0,436.5 Z M 379.0,433.5 L 373.0,433.5 L 373.5,432.0 L 370.0,430.5 L 342.0,429.5 L 341.0,427.5 L 337.5,427.0 L 363.5,427.0 L 351.0,429.5 L 398.5,429.0 L 379.0,433.5 Z M 470.0,452.5 L 466.5,452.0 L 505.0,442.5 L 518.0,437.5 L 541.0,433.5 L 552.5,436.0 L 552.0,439.5 L 544.0,438.5 L 528.0,443.5 L 524.0,442.5 L 504.0,445.5 L 470.0,452.5 Z M 356.0,440.5 L 332.5,440.0 L 337.0,438.5 L 356.0,440.5 Z M 501.0,462.5 L 498.5,462.0 L 500.5,459.0 L 498.5,458.0 L 501.0,456.5 L 532.0,445.5 L 537.5,446.0 L 534.5,447.0 L 536.0,448.5 L 530.0,450.5 L 531.0,452.5 L 524.0,453.5 L 501.0,462.5 Z M 469.0,478.5 L 467.5,477.0 L 470.0,474.5 L 482.0,466.5 L 486.0,464.5 L 489.5,467.0 L 469.0,478.5 Z"/>
<path fill="#3da5d6" d="M 438.0,111.5 L 437.5,110.0 L 452.0,95.5 L 438.0,111.5 Z M 459.0,113.5 L 454.5,108.0 L 455.5,105.0 L 454.0,107.5 L 452.5,107.0 L 454.0,100.5 L 460.5,110.0 L 459.0,113.5 Z M 425.0,125.5 L 422.5,125.0 L 433.0,114.5 L 434.5,116.0 L 433.5,118.0 L 425.0,125.5 Z M 447.0,132.5 L 445.5,132.0 L 448.0,129.5 L 456.0,126.5 L 458.0,123.5 L 459.5,125.0 L 447.0,132.5 Z M 533.0,171.5 L 528.5,167.0 L 529.0,164.5 L 533.5,167.0 L 534.5,170.0 L 533.0,171.5 Z M 535.0,178.5 L 531.5,176.0 L 533.5,174.0 L 530.0,172.5 L 534.5,173.0 L 536.5,176.0 L 535.0,178.5 Z M 388.0,191.5 L 376.0,190.5 L 379.5,189.0 L 376.5,188.0 L 381.0,184.5 L 370.5,188.0 L 374.0,190.5 L 370.0,190.5 L 367.5,188.0 L 371.0,182.5 L 388.0,177.5 L 382.5,182.0 L 390.5,186.0 L 383.5,189.0 L 388.0,191.5 Z M 558.0,187.5 L 555.5,181.0 L 551.5,180.0 L 555.0,177.5 L 562.5,184.0 L 558.0,187.5 Z M 340.0,200.5 L 339.5,194.0 L 346.0,182.5 L 347.5,187.0 L 350.5,188.0 L 340.0,200.5 Z M 569.0,197.5 L 567.5,197.0 L 571.5,192.0 L 565.5,190.0 L 568.0,187.5 L 577.0,187.5 L 579.0,185.5 L 580.5,187.0 L 569.0,197.5 Z M 330.0,204.5 L 328.0,204.5 L 325.0,199.5 L 324.5,204.0 L 322.5,203.0 L 324.0,193.5 L 315.0,203.5 L 313.5,202.0 L 325.0,190.5 L 329.5,194.0 L 332.5,201.0 L 330.0,204.5 Z M 553.0,201.5 L 548.0,192.5 L 550.0,194.5 L 559.5,195.0 L 555.0,197.5 L 553.0,201.5 Z M 308.0,251.5 L 306.5,251.0 L 308.5,248.0 L 312.5,246.0 L 311.5,245.0 L 317.5,238.0 L 316.5,236.0 L 318.5,236.0 L 317.5,234.0 L 321.5,225.0 L 324.0,223.5 L 328.0,227.5 L 327.5,224.0 L 331.5,222.0 L 331.0,220.5 L 327.5,222.0 L 330.0,211.5 L 330.5,216.0 L 333.5,217.0 L 334.5,221.0 L 331.5,228.0 L 329.5,228.0 L 329.5,236.0 L 326.0,235.5 L 326.5,237.0 L 321.0,243.5 L 320.0,242.5 L 315.0,248.5 L 308.0,251.5 Z M 621.0,261.5 L 597.0,249.5 L 587.0,242.5 L 586.0,239.5 L 585.0,240.5 L 581.5,238.0 L 587.5,233.0 L 592.0,222.5 L 595.5,223.0 L 594.5,232.0 L 596.0,225.5 L 596.5,233.0 L 587.0,235.5 L 586.5,237.0 L 590.0,241.5 L 593.0,241.5 L 597.0,245.5 L 607.0,250.5 L 607.0,252.5 L 609.0,251.5 L 624.5,259.0 L 621.0,261.5 Z M 249.0,285.5 L 247.5,283.0 L 271.5,257.0 L 270.5,255.0 L 273.0,251.5 L 269.5,253.0 L 270.5,254.0 L 267.0,258.5 L 265.5,258.0 L 265.5,255.0 L 270.5,247.0 L 268.5,243.0 L 271.0,240.5 L 277.0,242.5 L 279.0,241.5 L 290.0,230.5 L 280.5,251.0 L 272.5,263.0 L 268.5,266.0 L 269.5,268.0 L 251.0,283.5 L 250.0,282.5 L 249.0,285.5 Z M 549.0,335.5 L 540.5,334.0 L 542.0,332.5 L 569.0,329.5 L 574.0,327.5 L 576.0,328.5 L 598.0,323.5 L 603.0,324.5 L 603.0,322.5 L 612.0,320.5 L 621.0,320.5 L 622.0,318.5 L 638.0,315.5 L 663.0,306.5 L 679.0,296.5 L 688.5,286.0 L 693.5,275.0 L 693.5,264.0 L 689.0,255.5 L 690.5,261.0 L 689.5,273.0 L 680.5,286.0 L 662.0,297.5 L 643.5,303.0 L 666.0,292.5 L 678.5,281.0 L 681.5,276.0 L 683.5,270.0 L 683.5,257.0 L 676.5,244.0 L 670.5,238.0 L 671.0,236.5 L 694.0,251.5 L 705.5,267.0 L 708.5,279.0 L 708.5,289.0 L 707.0,292.5 L 705.0,291.5 L 704.5,294.0 L 703.0,293.5 L 703.5,295.0 L 698.5,298.0 L 700.5,300.0 L 696.0,304.5 L 690.5,302.0 L 691.0,296.5 L 687.5,299.0 L 689.5,300.0 L 688.0,301.5 L 687.0,300.5 L 677.0,309.5 L 673.0,308.5 L 667.0,312.5 L 649.0,318.5 L 644.0,317.5 L 614.0,325.5 L 601.0,325.5 L 602.0,327.5 L 557.0,332.5 L 549.0,335.5 Z M 282.0,268.5 L 278.5,261.0 L 288.0,251.5 L 300.0,243.5 L 294.5,250.0 L 295.5,251.0 L 291.5,261.0 L 282.0,268.5 Z M 664.0,257.5 L 663.5,255.0 L 665.5,253.0 L 663.0,250.5 L 660.0,251.5 L 657.0,246.5 L 663.0,246.5 L 665.5,249.0 L 664.5,251.0 L 666.5,250.0 L 666.5,256.0 L 665.0,255.5 L 664.0,257.5 Z M 654.0,272.5 L 643.0,270.5 L 623.5,263.0 L 628.5,261.0 L 627.5,256.0 L 631.0,253.5 L 635.5,258.0 L 634.0,259.5 L 637.0,258.5 L 641.5,261.0 L 638.5,262.0 L 643.0,266.5 L 647.0,267.5 L 648.0,264.5 L 649.0,266.5 L 650.0,265.5 L 650.5,268.0 L 654.5,270.0 L 654.0,272.5 Z M 305.0,274.5 L 297.5,272.0 L 304.0,270.5 L 312.0,265.5 L 313.5,263.0 L 310.5,262.0 L 311.0,260.5 L 316.0,263.5 L 320.5,262.0 L 320.0,267.5 L 316.0,268.5 L 310.0,273.5 L 305.0,274.5 Z M 705.0,310.5 L 703.5,309.0 L 713.0,299.5 L 714.5,302.0 L 705.0,310.5 Z M 690.0,311.5 L 687.0,311.5 L 687.5,310.0 L 685.5,309.0 L 693.0,305.5 L 696.5,306.0 L 690.0,311.5 Z M 605.0,331.5 L 601.5,330.0 L 624.0,323.5 L 639.0,323.5 L 639.0,321.5 L 655.0,319.5 L 680.0,308.5 L 685.5,310.0 L 677.0,314.5 L 648.0,323.5 L 605.0,331.5 Z M 692.0,320.5 L 689.5,319.0 L 704.5,315.0 L 703.0,317.5 L 692.0,320.5 Z M 704.0,330.5 L 701.0,325.5 L 688.0,329.5 L 684.5,329.0 L 695.0,324.5 L 703.0,323.5 L 706.0,323.5 L 704.5,326.0 L 706.0,326.5 L 707.5,325.0 L 706.5,323.0 L 710.0,321.5 L 708.5,326.0 L 706.0,328.5 L 705.0,327.5 L 704.0,330.5 Z M 339.0,334.5 L 316.0,334.5 L 277.5,328.0 L 331.0,330.5 L 330.0,333.5 L 339.0,334.5 Z M 689.0,335.5 L 681.5,334.0 L 693.0,329.5 L 695.5,331.0 L 689.0,335.5 Z M 585.0,334.5 L 579.5,333.0 L 597.0,330.5 L 598.5,332.0 L 585.0,334.5 Z M 515.0,415.5 L 496.0,415.5 L 494.5,414.0 L 497.0,412.5 L 516.0,413.5 L 515.0,415.5 Z M 357.0,415.5 L 335.5,414.0 L 355.0,413.5 L 357.0,415.5 Z M 551.0,419.5 L 542.5,419.0 L 548.0,418.5 L 547.0,416.5 L 554.5,417.0 L 551.0,419.5 Z M 275.0,429.5 L 273.0,426.5 L 270.0,428.5 L 263.0,427.5 L 262.0,425.5 L 261.0,427.5 L 260.5,424.0 L 257.5,421.0 L 267.0,418.5 L 277.0,419.5 L 279.5,425.0 L 275.0,429.5 Z M 626.0,429.5 L 625.0,425.5 L 619.5,424.0 L 621.0,419.5 L 625.5,422.0 L 626.0,429.5 Z M 632.0,431.5 L 633.5,422.0 L 637.0,419.5 L 640.0,420.5 L 642.5,424.0 L 632.0,431.5 Z M 520.0,424.5 L 512.5,424.0 L 524.0,421.5 L 536.5,423.0 L 520.0,424.5 Z M 584.0,426.5 L 562.0,426.5 L 560.5,425.0 L 563.0,423.5 L 579.0,423.5 L 584.0,426.5 Z M 370.0,431.5 L 342.0,431.5 L 337.5,428.0 L 370.0,431.5 Z M 283.0,441.5 L 272.0,432.5 L 267.5,433.0 L 271.0,430.5 L 272.0,431.5 L 272.0,429.5 L 274.0,431.5 L 275.0,430.5 L 282.5,438.0 L 283.0,441.5 Z M 332.0,441.5 L 331.0,439.5 L 325.0,440.5 L 308.0,436.5 L 297.5,430.0 L 303.0,429.5 L 310.0,432.5 L 335.0,437.5 L 332.0,441.5 Z M 534.0,452.5 L 529.5,451.0 L 557.5,441.0 L 538.0,445.5 L 533.5,445.0 L 541.0,442.5 L 544.0,438.5 L 552.5,439.0 L 551.0,434.5 L 546.0,433.5 L 567.0,431.5 L 570.0,434.5 L 578.0,435.5 L 580.0,432.5 L 573.0,433.5 L 568.5,432.0 L 596.0,431.5 L 602.5,434.0 L 596.0,437.5 L 587.0,437.5 L 587.0,439.5 L 585.0,438.5 L 575.0,442.5 L 571.0,441.5 L 570.0,443.5 L 563.0,443.5 L 562.0,445.5 L 542.0,450.5 L 538.0,449.5 L 538.0,451.5 L 533.0,450.5 L 534.0,452.5 Z M 617.0,445.5 L 613.5,437.0 L 616.5,435.0 L 615.0,433.5 L 618.0,433.5 L 619.5,436.0 L 616.5,437.0 L 617.0,445.5 Z M 422.0,445.5 L 418.0,444.5 L 416.5,441.0 L 430.0,437.5 L 434.5,438.0 L 431.0,438.5 L 431.0,441.5 L 437.5,441.0 L 434.0,443.5 L 429.0,442.5 L 428.0,444.5 L 422.0,443.5 L 422.0,445.5 Z M 304.0,448.5 L 303.0,446.5 L 300.0,447.5 L 300.0,445.5 L 297.0,446.5 L 296.0,444.5 L 294.0,445.5 L 290.0,443.5 L 289.5,440.0 L 287.5,439.0 L 292.0,438.5 L 308.5,447.0 L 304.0,448.5 Z M 366.0,447.5 L 364.5,447.0 L 368.0,444.5 L 374.0,445.5 L 375.0,443.5 L 404.5,441.0 L 366.0,447.5 Z M 497.0,455.5 L 494.5,454.0 L 507.5,450.0 L 497.0,455.5 Z M 490.0,467.5 L 486.5,465.0 L 487.0,463.5 L 496.0,458.5 L 500.5,459.0 L 496.5,463.0 L 497.0,464.5 L 495.0,463.5 L 490.0,467.5 Z M 460.0,485.5 L 457.0,481.5 L 464.0,477.5 L 468.5,479.0 L 460.0,485.5 Z"/>
<path fill="#93daf2" d="M 455.0,126.5 L 449.0,126.5 L 448.5,125.0 L 452.0,124.5 L 454.5,122.0 L 452.5,120.0 L 456.0,120.5 L 457.0,118.5 L 457.5,124.0 L 455.0,126.5 Z M 589.0,195.5 L 592.0,178.5 L 591.5,193.0 L 589.0,195.5 Z M 559.0,199.5 L 556.5,199.0 L 561.0,194.5 L 567.0,191.5 L 571.5,192.0 L 559.0,199.5 Z M 629.0,235.5 L 619.5,222.0 L 603.0,205.5 L 598.0,204.5 L 595.5,202.0 L 593.5,197.0 L 595.0,193.5 L 600.5,199.0 L 603.0,204.5 L 606.0,199.5 L 615.5,210.0 L 614.5,212.0 L 621.5,217.0 L 621.5,220.0 L 629.5,233.0 L 629.0,235.5 Z M 362.0,209.5 L 360.5,208.0 L 364.0,204.5 L 369.5,206.0 L 362.0,209.5 Z M 598.0,235.5 L 595.5,224.0 L 598.5,218.0 L 596.5,216.0 L 597.5,213.0 L 595.0,217.5 L 594.0,211.5 L 588.5,212.0 L 596.0,205.5 L 600.5,207.0 L 602.5,213.0 L 608.5,219.0 L 606.0,224.5 L 603.0,219.5 L 599.5,221.0 L 598.0,235.5 Z M 319.0,226.5 L 322.5,213.0 L 325.0,216.5 L 329.0,211.5 L 328.5,216.0 L 326.5,217.0 L 327.5,224.0 L 326.0,225.5 L 324.0,221.5 L 319.0,226.5 Z M 296.0,224.5 L 294.0,224.5 L 293.5,222.0 L 296.0,221.5 L 295.5,220.0 L 301.0,214.5 L 296.0,224.5 Z M 642.0,243.5 L 634.0,235.5 L 632.5,236.0 L 634.0,233.5 L 635.5,234.0 L 636.0,230.5 L 642.5,241.0 L 642.0,243.5 Z M 305.0,251.5 L 301.5,250.0 L 307.5,240.0 L 316.0,231.5 L 317.5,235.0 L 314.5,241.0 L 305.0,251.5 Z M 613.0,253.5 L 599.0,246.5 L 586.5,237.0 L 594.0,234.5 L 601.0,238.5 L 604.0,231.5 L 613.5,251.0 L 613.0,253.5 Z M 617.0,244.5 L 614.5,242.0 L 614.0,236.5 L 619.5,242.0 L 617.0,244.5 Z M 287.0,252.5 L 287.5,249.0 L 295.0,242.5 L 296.0,243.5 L 295.5,242.0 L 299.0,238.5 L 297.5,242.0 L 299.5,243.0 L 287.0,252.5 Z M 627.0,253.5 L 619.5,248.0 L 619.0,244.5 L 621.5,244.0 L 627.0,253.5 Z M 305.0,264.5 L 303.5,264.0 L 303.5,259.0 L 318.0,246.5 L 320.0,248.5 L 322.0,246.5 L 328.5,248.0 L 319.0,261.5 L 317.0,262.5 L 311.0,260.5 L 307.0,261.5 L 305.0,264.5 Z M 254.0,261.5 L 252.5,261.0 L 254.5,258.0 L 262.0,249.5 L 264.0,249.5 L 264.5,251.0 L 254.0,261.5 Z M 258.0,272.5 L 256.5,271.0 L 263.5,262.0 L 261.5,259.0 L 266.0,250.5 L 267.5,252.0 L 264.5,259.0 L 270.5,258.0 L 258.0,272.5 Z M 651.0,260.5 L 644.5,257.0 L 648.0,252.5 L 655.5,259.0 L 651.0,260.5 Z M 663.0,271.5 L 662.0,269.5 L 658.0,268.5 L 652.0,269.5 L 654.5,266.0 L 651.5,265.0 L 651.5,261.0 L 655.0,261.5 L 658.0,259.5 L 660.0,262.5 L 664.0,263.5 L 662.5,265.0 L 664.5,267.0 L 663.0,271.5 Z M 276.0,267.5 L 274.5,267.0 L 275.0,264.5 L 272.5,265.0 L 278.0,260.5 L 278.5,264.0 L 276.0,267.5 Z M 284.0,275.5 L 281.0,271.5 L 291.0,267.5 L 289.5,266.0 L 292.0,264.5 L 294.0,265.5 L 300.0,261.5 L 302.5,263.0 L 304.0,269.5 L 295.0,272.5 L 289.0,268.5 L 287.5,270.0 L 288.5,274.0 L 284.0,275.5 Z M 292.0,289.5 L 288.5,288.0 L 298.0,276.5 L 311.0,273.5 L 329.0,261.5 L 330.5,263.0 L 328.0,267.5 L 314.5,274.0 L 314.5,279.0 L 312.5,280.0 L 313.5,282.0 L 309.5,282.0 L 312.5,286.0 L 312.0,288.5 L 308.5,286.0 L 309.0,284.5 L 307.0,286.5 L 300.0,280.5 L 292.0,289.5 Z M 653.0,298.5 L 651.5,297.0 L 661.0,291.5 L 672.5,279.0 L 679.5,265.0 L 678.5,263.0 L 683.0,262.5 L 683.5,269.0 L 681.5,269.0 L 681.5,275.0 L 676.5,283.0 L 667.0,291.5 L 653.0,298.5 Z M 334.0,279.5 L 330.0,275.5 L 326.5,276.0 L 331.0,273.5 L 332.0,274.5 L 333.0,270.5 L 334.0,279.5 Z M 271.0,283.5 L 264.5,282.0 L 269.0,275.5 L 270.0,277.5 L 273.5,277.0 L 272.5,280.0 L 274.5,281.0 L 271.0,283.5 Z M 710.0,299.5 L 708.5,299.0 L 708.5,294.0 L 710.5,292.0 L 708.5,291.0 L 710.0,279.5 L 712.5,285.0 L 711.5,287.0 L 715.5,289.0 L 715.5,295.0 L 714.0,289.5 L 710.5,294.0 L 711.5,297.0 L 709.5,298.0 L 710.0,299.5 Z M 332.0,290.5 L 325.5,286.0 L 327.0,283.5 L 329.0,285.5 L 330.0,283.5 L 333.0,283.5 L 334.0,280.5 L 335.5,285.0 L 332.0,290.5 Z M 250.0,309.5 L 247.0,309.5 L 244.5,305.0 L 247.5,303.0 L 248.0,299.5 L 250.5,300.0 L 249.0,297.5 L 247.5,298.0 L 248.5,295.0 L 245.5,294.0 L 249.0,292.5 L 252.0,295.5 L 252.5,292.0 L 262.0,281.5 L 265.5,285.0 L 261.5,293.0 L 267.0,293.5 L 269.5,296.0 L 266.0,299.5 L 261.0,297.5 L 261.5,300.0 L 259.0,300.5 L 255.0,295.5 L 253.5,297.0 L 259.5,306.0 L 257.0,307.5 L 253.0,306.5 L 250.0,309.5 Z M 341.0,306.5 L 338.0,306.5 L 339.5,304.0 L 335.5,303.0 L 340.5,297.0 L 336.0,296.5 L 336.0,298.5 L 333.5,297.0 L 338.0,289.5 L 338.5,293.0 L 340.5,293.0 L 341.5,298.0 L 343.5,299.0 L 343.5,304.0 L 341.0,306.5 Z M 347.0,303.5 L 348.5,295.0 L 351.0,294.5 L 351.5,297.0 L 347.0,303.5 Z M 711.0,310.5 L 707.5,310.0 L 711.5,307.0 L 715.0,300.5 L 718.0,301.5 L 717.0,303.5 L 715.5,303.0 L 714.5,309.0 L 711.0,310.5 Z M 706.0,336.5 L 686.5,336.0 L 699.0,335.5 L 707.5,328.0 L 709.0,323.5 L 710.0,325.5 L 715.5,320.0 L 710.5,318.0 L 720.0,312.5 L 718.5,321.0 L 706.0,336.5 Z M 635.0,322.5 L 630.5,322.0 L 642.0,318.5 L 653.5,318.0 L 635.0,322.5 Z M 590.0,331.5 L 590.0,328.5 L 597.0,329.5 L 596.0,327.5 L 604.5,328.0 L 598.0,330.5 L 591.0,329.5 L 590.0,331.5 Z M 569.0,334.5 L 553.5,334.0 L 588.5,330.0 L 588.0,331.5 L 580.0,331.5 L 569.0,334.5 Z M 575.0,338.5 L 488.5,337.0 L 513.0,334.5 L 514.0,336.5 L 549.0,335.5 L 580.5,337.0 L 575.0,338.5 Z M 404.0,338.5 L 385.5,337.0 L 405.0,336.5 L 404.0,338.5 Z M 452.0,338.5 L 435.0,338.5 L 431.5,337.0 L 449.0,336.5 L 452.0,338.5 Z M 323.0,416.5 L 302.5,415.0 L 322.0,414.5 L 323.0,416.5 Z M 705.0,425.5 L 692.0,425.5 L 684.0,423.5 L 675.0,424.5 L 670.0,423.5 L 671.5,422.0 L 668.0,420.5 L 654.5,420.0 L 670.0,419.5 L 707.0,422.5 L 715.0,420.5 L 722.0,414.5 L 723.5,416.0 L 716.0,422.5 L 705.0,425.5 Z M 242.0,421.5 L 238.5,420.0 L 243.0,417.5 L 299.5,416.0 L 298.0,417.5 L 258.0,418.5 L 242.0,421.5 Z M 609.0,418.5 L 585.5,416.0 L 601.0,415.5 L 609.0,418.5 Z M 219.0,427.5 L 216.0,426.5 L 214.0,422.5 L 162.5,424.0 L 171.0,423.5 L 172.0,421.5 L 178.0,422.5 L 187.0,420.5 L 213.0,419.5 L 218.5,424.0 L 219.0,427.5 Z M 292.0,448.5 L 268.0,439.5 L 255.5,428.0 L 253.5,421.0 L 257.0,421.5 L 262.0,428.5 L 267.0,427.5 L 266.5,432.0 L 268.0,433.5 L 274.0,434.5 L 282.0,441.5 L 284.0,439.5 L 292.0,444.5 L 292.0,448.5 Z M 440.0,424.5 L 436.5,423.0 L 447.0,420.5 L 454.5,421.0 L 440.0,424.5 Z M 587.0,424.5 L 551.5,423.0 L 571.0,421.5 L 586.0,422.5 L 587.0,424.5 Z M 510.0,431.5 L 506.0,431.5 L 508.5,430.0 L 506.5,429.0 L 507.5,428.0 L 503.5,427.0 L 526.0,423.5 L 550.0,422.5 L 551.5,424.0 L 515.0,427.5 L 513.5,429.0 L 517.0,430.5 L 510.0,431.5 Z M 572.0,448.5 L 569.0,448.5 L 568.0,446.5 L 563.0,448.5 L 562.5,447.0 L 569.0,445.5 L 568.0,443.5 L 573.0,444.5 L 573.0,442.5 L 578.0,443.5 L 586.0,441.5 L 586.0,439.5 L 590.0,440.5 L 589.0,438.5 L 595.5,439.0 L 593.0,437.5 L 602.0,437.5 L 603.0,434.5 L 607.5,439.0 L 591.0,443.5 L 588.0,442.5 L 584.0,445.5 L 572.0,448.5 Z M 525.0,447.5 L 523.0,444.5 L 538.5,442.0 L 538.0,443.5 L 525.0,447.5 Z M 373.0,450.5 L 340.0,449.5 L 328.0,447.5 L 326.0,445.5 L 324.0,446.5 L 317.5,443.0 L 325.0,444.5 L 332.0,443.5 L 333.0,445.5 L 336.0,444.5 L 340.0,446.5 L 342.0,444.5 L 353.5,445.0 L 346.0,445.5 L 346.0,447.5 L 374.0,448.5 L 371.5,447.0 L 392.0,443.5 L 405.5,447.0 L 373.0,450.5 Z M 455.0,482.5 L 454.5,481.0 L 467.0,469.5 L 476.0,464.5 L 478.0,465.5 L 480.0,462.5 L 481.5,463.0 L 481.0,461.5 L 483.0,462.5 L 483.0,460.5 L 486.0,461.5 L 494.5,459.0 L 455.0,482.5 Z M 449.0,505.5 L 442.5,496.0 L 444.5,495.0 L 431.0,483.5 L 401.5,468.0 L 409.0,468.5 L 427.0,476.5 L 440.0,488.5 L 444.0,487.5 L 447.0,493.5 L 451.0,486.5 L 451.0,491.5 L 452.0,489.5 L 454.0,489.5 L 454.0,491.5 L 456.0,489.5 L 455.5,492.0 L 452.5,493.0 L 453.5,495.0 L 449.0,505.5 Z"/>
<path fill="#67abcb" d="M 468.0,123.5 L 467.0,121.5 L 460.5,121.0 L 460.5,116.0 L 458.5,114.0 L 461.0,111.5 L 470.5,122.0 L 468.0,123.5 Z M 509.0,140.5 L 508.0,136.5 L 506.0,140.5 L 504.5,139.0 L 507.5,134.0 L 507.5,131.0 L 506.0,134.5 L 505.5,130.0 L 503.5,129.0 L 505.0,125.5 L 508.5,126.0 L 509.0,140.5 Z M 510.0,151.5 L 509.5,141.0 L 512.0,135.5 L 512.5,142.0 L 510.5,143.0 L 510.5,146.0 L 512.5,150.0 L 510.0,151.5 Z M 478.0,151.5 L 476.5,146.0 L 478.5,142.0 L 480.0,142.5 L 484.0,138.5 L 485.5,140.0 L 478.0,151.5 Z M 375.0,165.5 L 369.5,165.0 L 372.0,148.5 L 376.5,162.0 L 375.0,162.5 L 372.5,159.0 L 375.0,165.5 Z M 433.0,178.5 L 429.0,174.5 L 427.5,175.0 L 425.0,168.5 L 431.5,174.0 L 433.0,178.5 Z M 392.0,186.5 L 387.5,185.0 L 391.0,181.5 L 399.0,179.5 L 402.0,179.5 L 407.5,184.0 L 407.0,185.5 L 392.0,186.5 Z M 490.0,185.5 L 478.5,184.0 L 491.0,180.5 L 490.0,185.5 Z M 597.0,195.5 L 592.0,190.5 L 590.5,191.0 L 593.0,182.5 L 598.5,193.0 L 597.0,195.5 Z M 558.0,194.5 L 552.5,194.0 L 553.0,192.5 L 555.5,193.0 L 554.5,187.0 L 557.0,184.5 L 559.5,190.0 L 558.0,194.5 Z M 393.0,207.5 L 388.0,203.5 L 380.0,201.5 L 364.5,205.0 L 371.0,199.5 L 384.0,200.5 L 384.5,198.0 L 382.0,196.5 L 379.0,197.5 L 368.0,195.5 L 363.0,197.5 L 360.0,196.5 L 359.0,198.5 L 357.5,197.0 L 375.0,189.5 L 388.0,191.5 L 393.5,198.0 L 392.0,199.5 L 394.0,198.5 L 401.5,203.0 L 401.0,205.5 L 400.0,203.5 L 392.0,200.5 L 394.5,204.0 L 393.0,207.5 Z M 318.0,216.5 L 316.5,215.0 L 322.0,202.5 L 323.5,204.0 L 322.5,210.0 L 318.0,216.5 Z M 506.0,212.5 L 493.5,210.0 L 495.5,209.0 L 496.0,205.5 L 505.0,209.5 L 506.0,212.5 Z M 634.0,221.5 L 632.0,217.5 L 630.5,219.0 L 631.0,211.5 L 634.5,217.0 L 634.0,221.5 Z M 593.0,223.5 L 592.5,221.0 L 595.5,216.0 L 598.0,216.5 L 597.5,220.0 L 593.0,223.5 Z M 509.0,225.5 L 505.5,223.0 L 506.0,219.5 L 511.5,223.0 L 509.0,225.5 Z M 494.0,239.5 L 486.0,238.5 L 485.5,237.0 L 494.0,236.5 L 495.5,238.0 L 494.0,239.5 Z M 479.0,250.5 L 476.5,248.0 L 485.0,243.5 L 485.5,246.0 L 479.0,250.5 Z M 397.0,274.5 L 394.5,274.0 L 394.5,256.0 L 396.0,253.5 L 397.5,260.0 L 404.5,271.0 L 401.0,273.5 L 398.0,270.5 L 397.0,274.5 Z M 498.0,288.5 L 495.5,265.0 L 497.0,255.5 L 498.5,257.0 L 497.5,260.0 L 502.0,260.5 L 503.5,264.0 L 502.5,284.0 L 498.0,288.5 Z M 647.0,267.5 L 645.0,260.5 L 650.0,263.5 L 651.5,262.0 L 651.5,265.0 L 649.0,266.5 L 648.0,264.5 L 647.0,267.5 Z M 306.0,269.5 L 303.0,268.5 L 302.5,266.0 L 307.0,261.5 L 313.5,263.0 L 306.0,269.5 Z M 601.0,271.5 L 594.0,269.5 L 591.0,270.5 L 585.5,267.0 L 586.0,265.5 L 584.0,266.5 L 584.0,264.5 L 582.0,265.5 L 579.5,263.0 L 597.0,267.5 L 600.0,270.5 L 602.0,269.5 L 601.0,271.5 Z M 492.0,274.5 L 490.5,270.0 L 492.0,263.5 L 493.5,269.0 L 495.5,269.0 L 492.0,274.5 Z M 292.0,275.5 L 288.5,275.0 L 287.5,270.0 L 289.0,268.5 L 294.5,272.0 L 292.0,275.5 Z M 661.0,273.5 L 660.0,271.5 L 655.0,272.5 L 654.5,270.0 L 658.0,268.5 L 662.0,269.5 L 661.0,273.5 Z M 461.0,279.5 L 455.0,275.5 L 453.0,277.5 L 449.5,277.0 L 457.0,272.5 L 464.0,273.5 L 464.5,276.0 L 461.0,279.5 Z M 288.0,282.5 L 285.5,281.0 L 285.0,277.5 L 290.0,278.5 L 293.0,275.5 L 297.5,277.0 L 296.0,279.5 L 288.0,282.5 Z M 325.0,286.5 L 323.5,286.0 L 323.5,282.0 L 320.5,280.0 L 330.0,275.5 L 334.5,280.0 L 333.5,283.0 L 330.0,283.5 L 329.0,285.5 L 327.0,283.5 L 325.0,286.5 Z M 484.0,288.5 L 484.5,281.0 L 490.0,277.5 L 488.5,284.0 L 484.0,288.5 Z M 697.0,309.5 L 696.0,305.5 L 687.0,307.5 L 682.5,305.0 L 689.5,300.0 L 687.5,299.0 L 689.0,297.5 L 691.0,302.5 L 696.0,304.5 L 699.0,301.5 L 701.0,304.5 L 701.5,302.0 L 699.5,301.0 L 702.5,298.0 L 701.5,297.0 L 705.0,291.5 L 708.0,292.5 L 709.5,295.0 L 708.5,299.0 L 710.5,300.0 L 705.0,305.5 L 699.0,308.5 L 698.0,307.5 L 697.0,309.5 Z M 655.0,319.5 L 652.5,319.0 L 653.0,316.5 L 670.0,310.5 L 673.5,312.0 L 655.0,319.5 Z M 608.0,328.5 L 602.5,327.0 L 618.5,325.0 L 608.0,328.5 Z M 699.0,335.5 L 689.5,335.0 L 695.0,331.5 L 696.0,328.5 L 702.0,326.5 L 703.5,330.0 L 699.0,335.5 Z M 547.0,336.5 L 513.5,336.0 L 541.0,332.5 L 532.5,335.0 L 547.0,336.5 Z M 567.0,336.5 L 550.0,336.5 L 549.5,335.0 L 565.0,334.5 L 567.0,336.5 Z M 322.0,336.5 L 298.5,336.0 L 322.0,336.5 Z M 406.0,339.5 L 201.5,339.0 L 406.0,339.5 Z M 716.0,339.5 L 421.5,339.0 L 716.0,339.5 Z M 334.0,416.5 L 324.0,416.5 L 322.5,414.0 L 335.0,413.5 L 339.5,415.0 L 334.0,416.5 Z M 519.0,421.5 L 494.0,419.5 L 485.0,420.5 L 480.5,418.0 L 487.0,417.5 L 490.5,416.0 L 489.0,414.5 L 492.0,415.5 L 494.0,413.5 L 496.0,415.5 L 511.0,414.5 L 515.0,415.5 L 513.5,419.0 L 519.0,421.5 Z M 532.0,420.5 L 522.0,420.5 L 519.5,419.0 L 523.0,416.5 L 515.5,415.0 L 517.0,413.5 L 552.0,413.5 L 570.0,414.5 L 571.5,416.0 L 569.0,417.5 L 547.0,416.5 L 548.0,418.5 L 532.0,420.5 Z M 313.0,417.5 L 299.0,417.5 L 299.0,415.5 L 289.5,415.0 L 314.0,415.5 L 313.0,417.5 Z M 599.0,418.5 L 574.5,417.0 L 578.0,414.5 L 598.0,416.5 L 599.0,418.5 Z M 520.0,430.5 L 513.5,429.0 L 521.0,426.5 L 532.5,427.0 L 530.0,425.5 L 541.0,426.5 L 542.0,424.5 L 552.0,425.5 L 552.0,423.5 L 562.5,424.0 L 560.5,425.0 L 561.0,426.5 L 536.0,428.5 L 534.0,426.5 L 534.0,428.5 L 520.0,430.5 Z M 290.0,438.5 L 273.5,430.0 L 279.0,425.5 L 283.5,433.0 L 290.0,438.5 Z M 438.0,442.5 L 434.5,442.0 L 437.0,440.5 L 431.0,441.5 L 430.5,439.0 L 439.0,437.5 L 440.0,435.5 L 442.0,436.5 L 444.0,434.5 L 469.0,434.5 L 470.0,432.5 L 475.0,433.5 L 476.0,431.5 L 492.0,428.5 L 507.0,427.5 L 506.5,429.0 L 508.5,430.0 L 506.0,430.5 L 506.0,432.5 L 500.0,430.5 L 438.0,442.5 Z M 407.0,447.5 L 396.5,445.0 L 401.0,443.5 L 414.0,444.5 L 415.0,442.5 L 420.5,445.0 L 407.0,447.5 Z M 364.0,447.5 L 346.0,447.5 L 345.5,446.0 L 363.0,445.5 L 367.0,443.5 L 367.5,445.0 L 364.0,447.5 Z M 518.0,450.5 L 510.0,450.5 L 508.5,449.0 L 515.0,446.5 L 517.0,447.5 L 518.0,445.5 L 521.0,446.5 L 521.0,444.5 L 524.5,446.0 L 524.0,448.5 L 518.0,448.5 L 518.0,450.5 Z M 443.0,488.5 L 440.0,488.5 L 435.5,484.0 L 436.0,479.5 L 444.5,487.0 L 443.0,488.5 Z M 455.0,490.5 L 451.5,489.0 L 451.5,485.0 L 456.0,481.5 L 459.5,485.0 L 455.0,490.5 Z"/>
<path fill="#f3fafc" d="M 396.0,140.5 L 393.5,140.0 L 392.0,132.5 L 394.5,133.0 L 396.0,140.5 Z M 380.0,241.5 L 376.5,239.0 L 381.0,233.5 L 380.5,236.0 L 383.5,237.0 L 380.0,241.5 Z M 367.0,265.5 L 365.5,260.0 L 367.5,259.0 L 367.0,245.5 L 368.5,255.0 L 367.0,265.5 Z M 297.0,255.5 L 294.5,254.0 L 297.5,252.0 L 296.5,250.0 L 301.0,247.5 L 300.5,252.0 L 302.5,253.0 L 297.0,255.5 Z M 359.0,263.5 L 360.5,251.0 L 362.0,249.5 L 363.0,251.5 L 364.0,249.5 L 363.5,261.0 L 362.0,254.5 L 359.0,263.5 Z M 228.0,286.5 L 226.5,286.0 L 229.5,283.0 L 226.5,281.0 L 230.5,279.0 L 229.5,275.0 L 232.5,273.0 L 230.5,272.0 L 239.0,266.5 L 242.0,266.5 L 243.5,269.0 L 242.5,271.0 L 240.0,272.5 L 237.0,270.5 L 239.5,273.0 L 231.5,280.0 L 231.5,282.0 L 234.0,281.5 L 245.0,270.5 L 245.5,272.0 L 239.5,277.0 L 244.5,276.0 L 236.5,281.0 L 240.0,279.5 L 241.5,281.0 L 236.0,284.5 L 234.0,282.5 L 232.0,285.5 L 228.0,286.5 Z M 373.0,275.5 L 372.5,270.0 L 370.5,270.0 L 373.0,266.5 L 374.5,268.0 L 373.5,272.0 L 375.5,271.0 L 373.0,275.5 Z M 216.0,302.5 L 212.5,300.0 L 213.5,298.0 L 210.5,297.0 L 216.0,297.5 L 216.5,296.0 L 214.0,294.5 L 218.5,295.0 L 215.5,293.0 L 218.0,288.5 L 216.5,292.0 L 219.0,293.5 L 222.0,291.5 L 222.5,293.0 L 217.5,297.0 L 219.5,299.0 L 218.0,301.5 L 217.0,298.5 L 214.5,299.0 L 216.5,300.0 L 216.0,302.5 Z M 672.0,300.5 L 671.5,298.0 L 670.0,299.5 L 668.5,297.0 L 671.0,295.5 L 673.0,296.5 L 680.0,290.5 L 680.5,292.0 L 672.0,300.5 Z M 216.0,318.5 L 210.5,317.0 L 213.5,315.0 L 209.5,310.0 L 217.0,307.5 L 216.5,312.0 L 218.0,311.5 L 217.5,314.0 L 219.5,315.0 L 216.0,318.5 Z M 421.0,329.5 L 419.0,318.5 L 421.5,321.0 L 421.5,325.0 L 424.5,325.0 L 421.0,329.5 Z M 722.0,331.5 L 718.0,331.5 L 716.5,329.0 L 718.5,326.0 L 717.5,325.0 L 720.5,323.0 L 718.5,322.0 L 719.0,320.5 L 724.5,325.0 L 723.0,326.5 L 720.0,325.5 L 721.5,327.0 L 718.5,328.0 L 720.0,330.5 L 721.0,328.5 L 722.0,331.5 Z M 713.0,335.5 L 711.5,333.0 L 714.0,333.5 L 713.5,331.0 L 716.0,329.5 L 715.5,332.0 L 718.5,333.0 L 713.0,335.5 Z M 399.0,385.5 L 398.5,369.0 L 400.0,370.5 L 411.0,369.5 L 410.0,379.5 L 409.0,374.5 L 400.5,374.0 L 401.0,372.5 L 410.0,371.5 L 399.5,372.0 L 399.0,385.5 Z M 610.0,384.5 L 611.5,374.0 L 622.0,373.5 L 613.5,372.0 L 623.0,370.5 L 622.0,375.5 L 613.0,375.5 L 611.5,377.0 L 612.5,379.0 L 610.0,384.5 Z M 361.0,383.5 L 359.5,381.0 L 360.0,374.5 L 350.0,375.5 L 349.5,373.0 L 361.0,372.5 L 361.0,383.5 Z M 392.0,378.5 L 390.0,374.5 L 381.0,374.5 L 380.0,376.5 L 379.5,373.0 L 392.0,372.5 L 392.0,378.5 Z M 442.0,377.5 L 442.0,372.5 L 453.5,373.0 L 453.0,376.5 L 451.0,374.5 L 443.0,374.5 L 442.0,377.5 Z M 468.0,377.5 L 466.0,374.5 L 461.0,374.5 L 459.0,376.5 L 458.5,374.0 L 460.0,372.5 L 468.0,372.5 L 468.0,377.5 Z M 488.0,377.5 L 489.0,373.5 L 499.5,373.0 L 499.0,376.5 L 490.0,374.5 L 488.0,377.5 Z M 507.0,379.5 L 507.0,372.5 L 517.5,373.0 L 518.0,375.5 L 508.0,374.5 L 507.0,379.5 Z M 537.0,381.5 L 537.0,372.5 L 546.5,373.0 L 546.0,374.5 L 538.0,374.5 L 537.0,381.5 Z M 592.0,378.5 L 591.0,372.5 L 603.5,375.0 L 603.0,376.5 L 593.0,375.5 L 592.0,378.5 Z M 299.0,381.5 L 299.0,373.5 L 309.5,374.0 L 306.0,375.5 L 302.0,374.5 L 299.0,381.5 Z M 634.0,383.5 L 634.0,373.5 L 659.5,376.0 L 635.0,376.5 L 634.0,383.5 Z M 255.0,379.5 L 253.5,379.0 L 255.0,374.5 L 266.5,375.0 L 266.0,376.5 L 255.0,376.5 L 255.0,379.5 Z M 676.0,378.5 L 673.5,377.0 L 675.0,374.5 L 686.5,375.0 L 685.0,376.5 L 676.0,376.5 L 676.0,378.5 Z M 217.0,379.5 L 216.0,377.5 L 208.0,377.5 L 207.5,376.0 L 218.0,375.5 L 217.0,379.5 Z M 712.0,386.5 L 703.0,377.5 L 686.5,377.0 L 703.0,375.5 L 711.5,382.0 L 712.0,386.5 Z M 225.0,385.5 L 215.0,384.5 L 213.5,383.0 L 214.5,380.0 L 216.5,380.0 L 216.0,383.5 L 227.5,384.0 L 225.0,385.5 Z M 496.0,423.5 L 489.0,421.5 L 473.5,422.0 L 479.0,420.5 L 501.5,422.0 L 496.0,423.5 Z M 524.0,457.5 L 523.0,455.5 L 534.0,452.5 L 543.0,450.5 L 547.5,452.0 L 544.0,451.5 L 543.0,453.5 L 539.0,453.5 L 537.0,455.5 L 528.0,455.5 L 524.0,457.5 Z"/>
<path fill="#082441" d="M 485.0,125.5 L 484.0,123.5 L 482.0,125.5 L 480.5,122.0 L 486.0,117.5 L 488.0,118.5 L 491.0,116.5 L 493.5,113.0 L 492.0,113.5 L 492.0,111.5 L 499.0,110.5 L 504.0,103.5 L 505.0,104.5 L 511.0,100.5 L 513.5,102.0 L 512.5,108.0 L 514.5,111.0 L 513.0,115.5 L 510.0,106.5 L 510.0,108.5 L 508.0,107.5 L 505.0,109.5 L 500.0,115.5 L 499.0,114.5 L 496.0,118.5 L 495.0,117.5 L 492.0,121.5 L 491.0,120.5 L 485.0,125.5 Z M 441.0,147.5 L 437.5,144.0 L 438.5,139.0 L 440.5,140.0 L 439.5,137.0 L 443.0,129.5 L 444.5,134.0 L 441.5,139.0 L 443.5,139.0 L 443.5,143.0 L 441.0,147.5 Z M 387.0,172.5 L 380.0,171.5 L 379.5,165.0 L 376.5,162.0 L 378.0,159.5 L 380.0,161.5 L 382.5,161.0 L 380.5,159.0 L 383.0,155.5 L 384.5,156.0 L 384.5,153.0 L 382.5,152.0 L 384.0,147.5 L 385.0,150.5 L 386.5,149.0 L 385.5,138.0 L 389.0,133.5 L 392.5,145.0 L 394.5,146.0 L 393.5,161.0 L 396.5,162.0 L 389.5,165.0 L 396.5,167.0 L 387.0,172.5 Z M 407.0,156.5 L 403.5,155.0 L 407.0,150.5 L 411.0,150.5 L 409.5,152.0 L 411.5,153.0 L 407.0,156.5 Z M 562.0,231.5 L 555.0,226.5 L 551.5,221.0 L 554.5,217.0 L 549.5,213.0 L 552.0,207.5 L 565.5,219.0 L 565.0,220.5 L 561.0,219.5 L 558.5,222.0 L 568.5,229.0 L 562.0,231.5 Z M 623.0,270.5 L 613.0,268.5 L 598.0,261.5 L 598.0,259.5 L 594.5,259.0 L 598.5,257.0 L 590.0,252.5 L 590.5,250.0 L 588.5,248.0 L 590.0,246.5 L 592.0,247.5 L 599.0,253.5 L 603.0,253.5 L 606.0,257.5 L 607.0,255.5 L 625.5,269.0 L 623.0,270.5 Z M 351.0,281.5 L 346.5,280.0 L 346.5,273.0 L 348.0,273.5 L 350.5,270.0 L 349.5,267.0 L 351.0,265.5 L 354.5,266.0 L 356.0,257.5 L 357.5,279.0 L 351.0,281.5 Z M 455.0,309.5 L 459.5,301.0 L 457.5,300.0 L 463.5,298.0 L 465.5,291.0 L 468.5,288.0 L 465.5,285.0 L 478.0,274.5 L 479.0,276.5 L 482.0,276.5 L 483.5,280.0 L 480.5,284.0 L 481.5,288.0 L 479.0,290.5 L 476.5,290.0 L 478.5,291.0 L 476.5,299.0 L 475.0,299.5 L 470.0,292.5 L 469.5,297.0 L 464.5,298.0 L 467.5,300.0 L 464.0,299.5 L 460.0,304.5 L 458.5,304.0 L 460.5,306.0 L 455.0,309.5 Z M 611.0,291.5 L 609.5,291.0 L 610.5,286.0 L 608.5,284.0 L 610.5,282.0 L 608.5,280.0 L 619.0,278.5 L 611.0,291.5 Z M 560.0,317.5 L 557.5,315.0 L 562.5,314.0 L 561.5,307.0 L 557.5,308.0 L 557.0,312.5 L 556.5,309.0 L 551.0,307.5 L 549.5,301.0 L 547.0,302.5 L 546.5,300.0 L 556.0,298.5 L 566.0,304.5 L 568.5,304.0 L 564.5,296.0 L 565.5,295.0 L 562.5,292.0 L 562.5,287.0 L 559.5,285.0 L 561.0,283.5 L 569.0,288.5 L 572.0,288.5 L 573.0,290.5 L 574.0,288.5 L 580.0,291.5 L 580.5,295.0 L 577.5,296.0 L 578.5,297.0 L 576.5,298.0 L 576.0,301.5 L 573.5,299.0 L 573.5,305.0 L 571.5,306.0 L 572.5,308.0 L 568.5,311.0 L 570.5,315.0 L 560.0,317.5 Z M 379.0,317.5 L 371.5,311.0 L 372.5,309.0 L 365.5,303.0 L 365.5,300.0 L 361.5,298.0 L 363.0,295.5 L 364.5,296.0 L 364.0,291.5 L 367.5,293.0 L 374.5,302.0 L 372.5,303.0 L 375.0,302.5 L 384.5,312.0 L 379.0,317.5 Z M 446.0,305.5 L 442.0,305.5 L 444.5,304.0 L 439.5,302.0 L 443.0,300.5 L 448.0,301.5 L 446.0,305.5 Z M 607.0,379.5 L 604.5,370.0 L 603.0,370.5 L 603.5,368.0 L 601.5,367.0 L 602.5,363.0 L 599.5,360.0 L 599.5,353.0 L 596.0,348.5 L 581.0,348.5 L 577.5,354.0 L 578.0,358.5 L 575.5,356.0 L 576.5,353.0 L 571.0,350.5 L 570.5,365.0 L 572.5,366.0 L 572.0,370.5 L 571.5,367.0 L 569.5,367.0 L 569.0,354.5 L 567.5,361.0 L 568.5,351.0 L 566.5,350.0 L 568.0,348.5 L 555.0,347.5 L 554.0,350.5 L 551.0,349.5 L 551.5,357.0 L 550.0,356.5 L 549.0,358.5 L 546.5,357.0 L 549.5,354.0 L 545.5,351.0 L 547.5,348.0 L 543.0,346.5 L 541.0,349.5 L 539.0,349.5 L 538.5,346.0 L 547.0,341.5 L 675.5,341.0 L 654.0,341.5 L 650.0,346.5 L 642.5,347.0 L 650.0,348.5 L 631.0,348.5 L 630.0,350.5 L 628.0,348.5 L 615.0,348.5 L 613.0,351.5 L 611.5,351.0 L 609.5,366.0 L 610.5,373.0 L 608.5,372.0 L 607.0,379.5 Z M 491.0,411.5 L 459.0,411.5 L 443.0,407.5 L 438.0,407.5 L 435.0,409.5 L 433.5,408.0 L 437.5,403.0 L 433.5,402.0 L 436.5,401.0 L 436.5,390.0 L 434.5,390.0 L 434.5,384.0 L 430.5,381.0 L 436.5,377.0 L 436.5,368.0 L 428.5,364.0 L 433.5,362.0 L 435.0,356.5 L 437.5,363.0 L 436.5,365.0 L 438.5,366.0 L 437.5,370.0 L 439.5,370.0 L 439.5,378.0 L 441.5,379.0 L 440.5,383.0 L 442.5,393.0 L 444.5,393.0 L 443.5,397.0 L 448.0,402.5 L 465.0,402.5 L 469.5,400.0 L 471.0,395.5 L 474.0,395.5 L 475.5,398.0 L 474.5,400.0 L 477.0,402.5 L 493.0,402.5 L 496.0,404.5 L 499.0,403.5 L 500.5,400.0 L 501.5,385.0 L 499.5,386.0 L 499.5,378.0 L 501.5,377.0 L 500.5,374.0 L 502.5,373.0 L 501.5,370.0 L 503.5,369.0 L 502.5,365.0 L 504.0,364.5 L 505.5,373.0 L 503.5,393.0 L 509.5,403.0 L 504.0,407.5 L 497.0,407.5 L 491.0,411.5 Z M 576.0,378.5 L 572.5,378.0 L 572.5,371.0 L 574.5,369.0 L 573.5,366.0 L 579.0,359.5 L 583.5,373.0 L 576.0,378.5 Z M 373.0,366.5 L 366.0,366.5 L 364.5,364.0 L 375.0,363.5 L 375.5,365.0 L 373.0,366.5 Z M 396.0,386.5 L 393.5,383.0 L 394.5,368.0 L 392.5,366.0 L 394.0,363.5 L 397.5,368.0 L 396.0,386.5 Z M 366.0,380.5 L 364.0,365.5 L 366.5,368.0 L 366.0,380.5 Z M 529.0,385.5 L 523.0,384.5 L 523.0,379.5 L 521.5,382.0 L 521.5,368.0 L 523.5,370.0 L 524.0,377.5 L 525.0,366.5 L 531.0,366.5 L 536.5,373.0 L 534.5,374.0 L 533.5,384.0 L 529.0,385.5 Z M 427.0,385.5 L 415.5,385.0 L 413.5,382.0 L 414.0,369.5 L 415.5,380.0 L 420.0,379.5 L 421.0,381.5 L 424.5,382.0 L 423.0,383.5 L 429.0,381.5 L 427.0,385.5 Z M 336.0,394.5 L 333.5,394.0 L 333.0,385.5 L 336.5,387.0 L 336.0,394.5 Z M 212.0,400.5 L 210.5,399.0 L 212.0,396.5 L 220.0,396.5 L 219.0,394.5 L 224.0,394.5 L 227.0,398.5 L 228.5,398.0 L 228.0,399.5 L 212.0,400.5 Z M 265.0,405.5 L 259.0,405.5 L 255.5,403.0 L 264.0,401.5 L 266.0,395.5 L 267.5,400.0 L 265.0,405.5 Z M 247.0,406.5 L 231.0,406.5 L 229.5,404.0 L 240.0,403.5 L 241.0,401.5 L 246.0,402.5 L 248.0,399.5 L 249.0,402.5 L 254.5,403.0 L 247.0,406.5 Z M 294.0,404.5 L 278.0,404.5 L 276.5,401.0 L 295.0,399.5 L 299.5,403.0 L 294.0,404.5 Z M 415.0,413.5 L 410.0,411.5 L 307.0,412.5 L 306.5,411.0 L 331.0,409.5 L 333.0,407.5 L 334.0,409.5 L 348.0,407.5 L 352.5,406.0 L 348.0,402.5 L 365.0,401.5 L 365.0,403.5 L 356.0,403.5 L 355.5,407.0 L 366.0,409.5 L 373.0,407.5 L 376.0,408.5 L 377.0,406.5 L 387.0,406.5 L 397.0,399.5 L 399.0,401.5 L 403.0,399.5 L 403.5,401.0 L 400.0,403.5 L 410.0,404.5 L 409.5,406.0 L 414.0,408.5 L 420.5,408.0 L 419.0,410.5 L 417.0,409.5 L 415.0,413.5 Z M 191.0,410.5 L 187.5,408.0 L 188.0,406.5 L 197.0,406.5 L 198.0,404.5 L 205.0,405.5 L 209.0,401.5 L 210.5,403.0 L 209.0,408.5 L 191.0,410.5 Z"/>
<path fill="#051427" d="M 477.0,154.5 L 467.5,153.0 L 472.0,147.5 L 473.5,148.0 L 474.0,144.5 L 477.0,154.5 Z M 512.0,177.5 L 498.0,176.5 L 503.0,176.5 L 503.5,174.0 L 498.0,171.5 L 499.0,169.5 L 495.0,169.5 L 494.0,166.5 L 488.5,167.0 L 495.0,164.5 L 499.5,166.0 L 498.5,160.0 L 495.0,156.5 L 493.5,157.0 L 493.0,151.5 L 492.5,160.0 L 494.5,161.0 L 494.0,163.5 L 478.5,160.0 L 483.0,159.5 L 482.5,158.0 L 486.0,156.5 L 491.0,158.5 L 492.5,146.0 L 494.0,150.5 L 495.0,147.5 L 500.0,147.5 L 501.0,144.5 L 500.5,151.0 L 502.0,151.5 L 504.5,148.0 L 502.5,156.0 L 504.0,156.5 L 507.5,152.0 L 504.5,162.0 L 511.5,158.0 L 507.5,173.0 L 512.5,174.0 L 507.5,176.0 L 515.0,174.5 L 519.0,165.5 L 522.5,170.0 L 521.0,174.5 L 520.0,172.5 L 512.0,177.5 Z M 547.0,209.5 L 535.0,206.5 L 536.5,200.0 L 523.5,187.0 L 528.0,184.5 L 532.0,186.5 L 530.5,188.0 L 536.5,192.0 L 533.5,195.0 L 540.0,196.5 L 541.5,198.0 L 539.5,199.0 L 545.0,203.5 L 546.0,201.5 L 549.5,206.0 L 547.0,209.5 Z M 539.0,215.5 L 536.0,215.5 L 533.5,213.0 L 534.0,206.5 L 540.5,214.0 L 539.0,215.5 Z M 452.0,333.5 L 450.5,331.0 L 452.5,328.0 L 454.0,330.5 L 455.5,329.0 L 453.5,326.0 L 455.5,326.0 L 461.5,316.0 L 472.0,304.5 L 471.0,317.5 L 478.5,310.0 L 492.0,283.5 L 491.5,295.0 L 488.5,303.0 L 487.0,300.5 L 485.5,303.0 L 484.0,310.5 L 511.5,287.0 L 517.5,275.0 L 517.5,258.0 L 519.0,256.5 L 526.5,270.0 L 528.5,270.0 L 529.5,263.0 L 526.5,248.0 L 524.5,243.0 L 522.0,242.5 L 517.5,236.0 L 517.0,232.5 L 522.5,238.0 L 522.0,239.5 L 523.0,238.5 L 527.5,242.0 L 536.5,257.0 L 538.5,257.0 L 537.5,244.0 L 535.5,240.0 L 536.5,237.0 L 534.5,237.0 L 529.5,228.0 L 521.5,221.0 L 523.0,219.5 L 541.0,232.5 L 543.5,232.0 L 543.0,229.5 L 544.0,230.5 L 545.0,228.5 L 549.0,227.5 L 556.5,242.0 L 561.5,245.0 L 556.0,245.5 L 545.0,240.5 L 542.5,241.0 L 545.5,251.0 L 545.5,267.0 L 540.5,265.0 L 540.5,276.0 L 535.5,295.0 L 527.0,281.5 L 524.5,292.0 L 521.5,298.0 L 518.5,299.0 L 519.0,301.5 L 515.0,292.5 L 513.5,296.0 L 509.5,298.0 L 509.5,303.0 L 506.0,307.5 L 504.5,307.0 L 504.5,310.0 L 502.5,309.0 L 503.0,311.5 L 501.0,308.5 L 493.0,316.5 L 492.0,315.5 L 491.0,318.5 L 490.0,315.5 L 483.0,319.5 L 480.0,319.5 L 478.0,316.5 L 478.0,320.5 L 464.0,328.5 L 462.0,326.5 L 460.0,328.5 L 459.0,327.5 L 452.0,333.5 Z M 476.0,265.5 L 474.5,265.0 L 474.5,261.0 L 476.5,261.0 L 476.5,257.0 L 478.0,257.5 L 486.0,249.5 L 486.5,251.0 L 482.5,254.0 L 480.5,263.0 L 476.0,265.5 Z M 455.0,273.5 L 450.5,272.0 L 455.0,271.5 L 455.5,270.0 L 450.5,269.0 L 453.0,265.5 L 457.5,266.0 L 455.5,260.0 L 457.0,258.5 L 458.5,269.0 L 456.5,268.0 L 457.5,271.0 L 455.0,273.5 Z M 461.0,288.5 L 458.0,283.5 L 432.0,284.5 L 430.5,283.0 L 440.0,283.5 L 437.5,282.0 L 443.0,280.5 L 444.0,278.5 L 447.0,281.5 L 457.0,282.5 L 460.0,280.5 L 462.0,281.5 L 463.0,278.5 L 464.0,280.5 L 469.0,275.5 L 470.5,279.0 L 461.0,288.5 Z M 451.0,299.5 L 445.0,299.5 L 445.5,296.0 L 443.5,295.0 L 453.0,295.5 L 453.5,298.0 L 451.0,299.5 Z M 716.0,340.5 L 643.5,340.0 L 716.0,340.5 Z M 698.0,349.5 L 677.5,349.0 L 698.0,349.5 Z M 707.0,410.5 L 691.0,410.5 L 680.0,407.5 L 679.0,409.5 L 675.0,404.5 L 672.0,407.5 L 653.0,407.5 L 633.0,406.5 L 631.5,404.0 L 634.0,400.5 L 670.0,403.5 L 671.5,400.0 L 669.5,395.0 L 670.0,389.5 L 671.5,392.0 L 670.0,386.5 L 662.5,388.0 L 669.0,389.5 L 648.5,389.0 L 649.0,381.5 L 662.5,381.0 L 662.5,371.0 L 667.0,368.5 L 670.5,376.0 L 669.5,377.0 L 674.0,378.5 L 675.0,381.5 L 677.0,380.5 L 676.5,382.0 L 680.5,386.0 L 680.0,387.5 L 677.5,387.0 L 679.0,388.5 L 674.5,388.0 L 672.5,399.0 L 681.0,402.5 L 680.0,404.5 L 684.0,403.5 L 683.0,405.5 L 689.0,404.5 L 694.0,406.5 L 705.0,406.5 L 714.0,400.5 L 713.5,406.0 L 707.0,410.5 Z M 589.0,404.5 L 558.0,403.5 L 558.0,400.5 L 573.5,400.0 L 555.5,399.0 L 589.0,399.5 L 590.0,386.5 L 570.5,386.0 L 589.0,385.5 L 585.5,375.0 L 585.5,372.0 L 588.0,371.5 L 587.5,375.0 L 589.0,374.5 L 590.5,377.0 L 589.5,380.0 L 591.5,380.0 L 594.5,387.0 L 594.0,389.5 L 592.5,388.0 L 594.5,393.0 L 592.0,394.5 L 590.5,392.0 L 591.5,403.0 L 589.0,404.5 Z M 693.0,391.5 L 684.5,390.0 L 689.0,389.5 L 691.0,383.5 L 680.5,383.0 L 695.0,383.5 L 692.5,385.0 L 695.5,386.0 L 696.0,389.5 L 697.5,386.0 L 697.5,390.0 L 693.0,391.5 Z M 616.0,405.5 L 601.0,404.5 L 596.5,400.0 L 598.0,398.5 L 619.0,400.5 L 620.0,396.5 L 621.5,399.0 L 621.0,391.5 L 622.0,395.5 L 623.5,393.0 L 622.5,400.0 L 616.0,405.5 Z M 430.0,398.5 L 408.5,398.0 L 430.0,398.5 Z M 519.0,402.5 L 513.0,400.5 L 511.5,398.0 L 516.0,399.5 L 518.5,399.0 L 516.0,397.5 L 537.5,399.0 L 520.0,399.5 L 519.0,402.5 Z M 538.0,412.5 L 506.5,412.0 L 538.0,412.5 Z M 575.0,413.5 L 550.5,413.0 L 575.0,413.5 Z M 602.0,414.5 L 579.5,414.0 L 602.0,414.5 Z"/>
<path fill="#9bb4c6" d="M 401.0,134.5 L 383.0,113.5 L 395.5,124.0 L 402.5,133.0 L 401.0,134.5 Z M 510.0,140.5 L 509.5,130.0 L 506.5,124.0 L 506.5,120.0 L 509.0,117.5 L 511.5,136.0 L 510.0,140.5 Z M 376.0,152.5 L 374.5,152.0 L 373.5,135.0 L 375.5,135.0 L 374.5,139.0 L 377.0,140.5 L 376.5,130.0 L 379.0,119.5 L 383.5,129.0 L 381.5,130.0 L 382.5,138.0 L 379.5,138.0 L 380.5,145.0 L 378.0,143.5 L 376.5,145.0 L 377.5,150.0 L 376.0,152.5 Z M 512.0,148.5 L 510.5,146.0 L 510.5,143.0 L 512.5,142.0 L 512.0,131.5 L 514.5,142.0 L 512.0,148.5 Z M 401.0,150.5 L 394.5,146.0 L 396.0,143.5 L 397.0,145.5 L 398.5,145.0 L 397.5,137.0 L 401.0,139.5 L 402.5,138.0 L 401.5,135.0 L 404.0,134.5 L 406.5,144.0 L 403.0,139.5 L 401.5,141.0 L 402.5,146.0 L 401.0,150.5 Z M 491.0,150.5 L 490.0,144.5 L 488.5,149.0 L 485.0,150.5 L 483.5,144.0 L 485.0,140.5 L 486.5,143.0 L 485.5,146.0 L 487.0,146.5 L 493.0,138.5 L 491.0,150.5 Z M 369.0,160.5 L 365.5,156.0 L 365.5,153.0 L 368.0,156.5 L 369.5,155.0 L 368.5,147.0 L 371.0,140.5 L 373.5,147.0 L 371.5,146.0 L 371.5,159.0 L 370.0,158.5 L 369.0,160.5 Z M 424.0,190.5 L 420.0,186.5 L 414.0,184.5 L 415.5,183.0 L 414.5,180.0 L 412.0,181.5 L 411.5,177.0 L 405.5,174.0 L 407.0,172.5 L 415.0,172.5 L 423.0,176.5 L 422.5,180.0 L 425.5,188.0 L 424.0,190.5 Z M 467.0,177.5 L 464.5,176.0 L 468.0,173.5 L 480.5,173.0 L 480.0,174.5 L 475.0,173.5 L 467.0,177.5 Z M 464.0,189.5 L 461.5,189.0 L 463.5,187.0 L 464.0,181.5 L 465.0,182.5 L 472.0,178.5 L 484.5,179.0 L 476.0,183.5 L 476.0,185.5 L 470.0,185.5 L 464.0,189.5 Z M 434.0,197.5 L 431.5,196.0 L 429.5,190.0 L 431.0,186.5 L 434.5,193.0 L 434.0,197.5 Z M 473.0,200.5 L 471.5,200.0 L 473.5,198.0 L 472.5,197.0 L 475.0,195.5 L 478.0,198.5 L 484.0,194.5 L 493.5,193.0 L 487.0,197.5 L 485.0,196.5 L 484.0,198.5 L 473.0,200.5 Z M 417.0,202.5 L 413.0,199.5 L 411.0,200.5 L 411.5,198.0 L 416.0,199.5 L 418.0,195.5 L 417.0,202.5 Z M 459.0,217.5 L 456.0,216.5 L 452.5,211.0 L 454.5,211.0 L 456.0,205.5 L 459.5,207.0 L 466.0,197.5 L 465.5,205.0 L 459.0,217.5 Z M 439.0,213.5 L 437.0,207.5 L 435.5,210.0 L 436.0,202.5 L 438.5,205.0 L 439.0,213.5 Z M 401.0,214.5 L 394.0,210.5 L 386.0,210.5 L 377.0,214.5 L 371.5,214.0 L 391.0,205.5 L 393.0,207.5 L 394.0,206.5 L 401.0,214.5 Z M 466.0,220.5 L 462.5,219.0 L 467.0,214.5 L 472.5,216.0 L 466.0,220.5 Z M 508.0,225.5 L 500.0,224.5 L 503.5,223.0 L 495.5,217.0 L 497.0,215.5 L 488.5,216.0 L 492.0,214.5 L 502.0,215.5 L 505.5,218.0 L 505.5,223.0 L 508.0,225.5 Z M 515.0,229.5 L 508.5,226.0 L 511.0,223.5 L 512.0,224.5 L 512.0,222.5 L 514.5,224.0 L 515.0,229.5 Z M 373.0,240.5 L 371.5,238.0 L 379.0,228.5 L 385.0,224.5 L 389.5,225.0 L 386.0,226.5 L 373.0,240.5 Z M 504.0,282.5 L 502.5,251.0 L 497.0,242.5 L 486.5,242.0 L 494.0,241.5 L 491.5,240.0 L 497.0,235.5 L 503.0,237.5 L 503.0,239.5 L 506.0,239.5 L 502.5,231.0 L 507.0,230.5 L 511.5,234.0 L 516.5,242.0 L 511.0,243.5 L 506.5,241.0 L 510.5,253.0 L 510.5,267.0 L 508.5,267.0 L 509.5,271.0 L 507.5,271.0 L 508.5,274.0 L 506.0,278.5 L 504.5,268.0 L 505.5,281.0 L 504.0,282.5 Z M 529.0,237.5 L 519.5,232.0 L 523.0,232.5 L 523.0,230.5 L 526.0,231.5 L 529.0,237.5 Z M 384.0,265.5 L 382.5,263.0 L 384.5,259.0 L 383.5,256.0 L 385.5,256.0 L 384.0,251.5 L 380.0,251.5 L 372.5,261.0 L 372.5,256.0 L 377.5,245.0 L 384.0,239.5 L 386.0,238.5 L 387.0,240.5 L 390.0,237.5 L 395.0,236.5 L 395.0,238.5 L 392.0,238.5 L 383.5,246.0 L 391.0,241.5 L 398.0,241.5 L 406.0,245.5 L 411.5,251.0 L 410.0,253.5 L 398.0,244.5 L 391.0,245.5 L 387.5,248.0 L 389.5,250.0 L 384.0,265.5 Z M 354.0,253.5 L 353.5,252.0 L 364.0,241.5 L 366.5,242.0 L 361.0,250.5 L 359.0,248.5 L 354.0,253.5 Z M 519.0,251.5 L 514.5,247.0 L 517.0,242.5 L 519.0,251.5 Z M 470.0,268.5 L 468.5,266.0 L 469.5,263.0 L 466.5,262.0 L 469.5,261.0 L 468.5,258.0 L 476.0,247.5 L 479.5,251.0 L 472.5,261.0 L 473.5,262.0 L 470.0,268.5 Z M 394.0,288.5 L 392.5,282.0 L 388.5,276.0 L 389.0,272.5 L 393.5,275.0 L 393.5,254.0 L 390.0,255.5 L 389.5,254.0 L 397.0,248.5 L 399.5,252.0 L 401.5,263.0 L 410.5,276.0 L 411.5,282.0 L 403.5,274.0 L 404.5,271.0 L 397.5,260.0 L 396.0,253.5 L 394.5,256.0 L 395.5,284.0 L 394.0,288.5 Z M 463.0,273.5 L 457.5,272.0 L 460.0,263.5 L 462.0,267.5 L 467.5,265.0 L 463.0,273.5 Z M 383.0,307.5 L 369.5,294.0 L 371.0,286.5 L 374.5,293.0 L 377.5,294.0 L 376.5,283.0 L 380.0,267.5 L 381.5,276.0 L 379.5,279.0 L 379.5,294.0 L 380.5,298.0 L 382.5,298.0 L 381.5,302.0 L 383.5,302.0 L 383.0,307.5 Z M 430.0,280.5 L 424.0,278.5 L 416.5,269.0 L 418.0,267.5 L 423.0,273.5 L 431.0,276.5 L 428.5,273.0 L 430.0,271.5 L 439.5,278.0 L 439.0,279.5 L 430.0,280.5 Z M 491.0,279.5 L 490.0,277.5 L 487.5,278.0 L 490.0,268.5 L 492.5,275.0 L 491.0,279.5 Z M 449.0,293.5 L 436.0,293.5 L 430.5,289.0 L 434.0,286.5 L 439.0,290.5 L 449.0,290.5 L 451.5,289.0 L 440.5,288.0 L 453.0,287.5 L 457.0,284.5 L 455.5,290.0 L 449.0,293.5 Z M 395.0,316.5 L 387.5,303.0 L 387.5,298.0 L 385.5,297.0 L 387.0,294.5 L 390.5,298.0 L 390.5,303.0 L 394.0,302.5 L 393.5,292.0 L 397.0,289.5 L 399.5,302.0 L 395.5,301.0 L 396.5,315.0 L 395.0,316.5 Z M 430.0,312.5 L 428.0,308.5 L 426.5,310.0 L 424.5,304.0 L 417.0,294.5 L 423.5,296.0 L 430.5,307.0 L 430.0,312.5 Z M 440.0,319.5 L 439.5,313.0 L 449.0,305.5 L 456.0,302.5 L 450.5,312.0 L 445.0,317.5 L 440.0,319.5 Z M 420.0,333.5 L 413.0,325.5 L 412.0,327.5 L 410.5,326.0 L 404.5,318.0 L 400.5,312.0 L 403.0,309.5 L 417.5,324.0 L 420.5,330.0 L 420.0,333.5 Z M 431.0,334.5 L 431.5,319.0 L 429.5,317.0 L 431.0,317.5 L 433.5,315.0 L 434.5,310.0 L 436.0,311.5 L 437.0,309.5 L 438.5,321.0 L 434.5,325.0 L 435.5,326.0 L 432.5,329.0 L 431.0,334.5 Z M 434.0,332.5 L 439.5,322.0 L 447.0,317.5 L 444.5,323.0 L 434.0,332.5 Z M 480.0,418.5 L 473.5,418.0 L 490.5,416.0 L 480.0,418.5 Z M 521.0,420.5 L 515.0,420.5 L 513.5,417.0 L 516.0,415.5 L 523.0,416.5 L 519.5,419.0 L 521.0,420.5 Z"/>
</svg>